<svg xmlns="http://www.w3.org/2000/svg" xmlns:xlink="http://www.w3.org/1999/xlink" viewBox="0 0 800 600"><defs><style>.cls-1{isolation:isolate;}.cls-2{fill:url(#linear-gradient);}.cls-3{fill:url(#linear-gradient-2);}.cls-4{fill:url(#linear-gradient-3);}.cls-5{fill:url(#linear-gradient-4);}.cls-6{fill:url(#linear-gradient-5);}.cls-7{fill:url(#linear-gradient-6);}.cls-8{fill:none;stroke:#f7c469;stroke-width:4px;}.cls-188,.cls-189,.cls-190,.cls-8{stroke-miterlimit:10;}.cls-10,.cls-11,.cls-12,.cls-13,.cls-9{opacity:0.4;}.cls-9{fill:url(#linear-gradient-7);}.cls-10{fill:url(#linear-gradient-8);}.cls-11{fill:url(#linear-gradient-9);}.cls-12{fill:url(#linear-gradient-10);}.cls-13{fill:url(#linear-gradient-11);}.cls-14{fill:url(#linear-gradient-12);}.cls-15{fill:url(#linear-gradient-13);}.cls-16{fill:url(#linear-gradient-14);}.cls-17{fill:url(#New_Gradient_Swatch_copy_2);}.cls-18{fill:url(#New_Gradient_Swatch);}.cls-19{fill:url(#linear-gradient-15);}.cls-20{fill:url(#linear-gradient-16);}.cls-21{fill:#c7deff;}.cls-22{fill:#fff;}.cls-23{fill:url(#linear-gradient-17);}.cls-24{fill:url(#linear-gradient-18);}.cls-25{fill:url(#linear-gradient-19);}.cls-26{fill:url(#linear-gradient-20);}.cls-27{fill:url(#linear-gradient-21);}.cls-28{fill:url(#linear-gradient-22);}.cls-29{fill:url(#linear-gradient-23);}.cls-30{fill:url(#linear-gradient-24);}.cls-31{fill:url(#linear-gradient-25);}.cls-32{fill:url(#linear-gradient-26);}.cls-33{fill:url(#linear-gradient-27);}.cls-34{fill:url(#linear-gradient-28);}.cls-35{mix-blend-mode:multiply;fill:url(#linear-gradient-29);}.cls-36{fill:url(#linear-gradient-30);}.cls-37{fill:url(#linear-gradient-31);}.cls-38{fill:url(#linear-gradient-32);}.cls-39{fill:url(#linear-gradient-33);}.cls-40{fill:url(#linear-gradient-34);}.cls-41{fill:url(#linear-gradient-35);}.cls-42{fill:#e8f7f9;}.cls-43{fill:url(#linear-gradient-36);}.cls-44{fill:url(#linear-gradient-37);}.cls-45{fill:url(#linear-gradient-38);}.cls-46{fill:url(#linear-gradient-39);}.cls-47{fill:url(#linear-gradient-40);}.cls-48{fill:url(#linear-gradient-41);}.cls-49{fill:url(#linear-gradient-42);}.cls-50{fill:url(#linear-gradient-43);}.cls-51{fill:url(#linear-gradient-44);}.cls-52{fill:url(#linear-gradient-45);}.cls-53{fill:url(#linear-gradient-46);}.cls-54{fill:url(#linear-gradient-47);}.cls-55{fill:url(#linear-gradient-48);}.cls-56{fill:url(#linear-gradient-49);}.cls-57{fill:url(#linear-gradient-50);}.cls-58{fill:url(#linear-gradient-51);}.cls-59{fill:url(#linear-gradient-52);}.cls-60{fill:url(#linear-gradient-53);}.cls-61{fill:url(#linear-gradient-54);}.cls-62{fill:url(#linear-gradient-55);}.cls-63{fill:url(#linear-gradient-56);}.cls-64{fill:url(#linear-gradient-57);}.cls-65{fill:url(#linear-gradient-58);}.cls-66{fill:url(#linear-gradient-59);}.cls-67{fill:url(#linear-gradient-60);}.cls-68{fill:url(#linear-gradient-61);}.cls-69{fill:url(#linear-gradient-62);}.cls-70{fill:url(#linear-gradient-63);}.cls-71{fill:url(#linear-gradient-64);}.cls-72{fill:url(#linear-gradient-65);}.cls-73{fill:url(#linear-gradient-66);}.cls-74{fill:url(#linear-gradient-67);}.cls-75{fill:url(#linear-gradient-68);}.cls-76{fill:url(#linear-gradient-69);}.cls-77{fill:url(#linear-gradient-70);}.cls-78{fill:url(#linear-gradient-71);}.cls-79{fill:url(#linear-gradient-72);}.cls-80{fill:url(#linear-gradient-73);}.cls-81{fill:url(#linear-gradient-74);}.cls-82{fill:url(#linear-gradient-75);}.cls-83{fill:url(#linear-gradient-76);}.cls-84{fill:url(#linear-gradient-77);}.cls-85{fill:url(#linear-gradient-78);}.cls-86{fill:url(#linear-gradient-79);}.cls-87{fill:url(#linear-gradient-80);}.cls-88{fill:url(#linear-gradient-81);}.cls-89{fill:url(#linear-gradient-82);}.cls-90{fill:url(#linear-gradient-83);}.cls-91{fill:url(#linear-gradient-84);}.cls-92{fill:url(#linear-gradient-85);}.cls-93{fill:url(#linear-gradient-86);}.cls-94{fill:url(#linear-gradient-87);}.cls-95{fill:url(#linear-gradient-88);}.cls-96{fill:url(#New_Gradient_Swatch_copy_11);}.cls-97{fill:url(#New_Gradient_Swatch_copy_9);}.cls-98{fill:url(#New_Gradient_Swatch_copy_10);}.cls-99{fill:url(#linear-gradient-89);}.cls-100{fill:url(#linear-gradient-90);}.cls-101{fill:url(#linear-gradient-91);}.cls-102{fill:url(#linear-gradient-92);}.cls-103{fill:#faf8ff;}.cls-103,.cls-106,.cls-153,.cls-154,.cls-155{opacity:0.5;}.cls-104{fill:#d65a23;}.cls-105{fill:url(#linear-gradient-93);}.cls-106{fill:#f1f9a5;}.cls-107{fill:url(#linear-gradient-94);}.cls-108{fill:url(#linear-gradient-95);}.cls-109{fill:url(#linear-gradient-96);}.cls-110{fill:url(#linear-gradient-97);}.cls-111{fill:url(#linear-gradient-98);}.cls-112{fill:url(#linear-gradient-99);}.cls-113{fill:url(#linear-gradient-100);}.cls-114{fill:#f9f0ff;opacity:0.61;}.cls-114,.cls-153,.cls-154,.cls-155{mix-blend-mode:screen;}.cls-115{fill:url(#linear-gradient-101);}.cls-116{fill:url(#New_Gradient_Swatch_copy_18);}.cls-117{fill:url(#linear-gradient-102);}.cls-118{fill:url(#linear-gradient-103);}.cls-119{fill:url(#linear-gradient-104);}.cls-120{fill:url(#linear-gradient-105);}.cls-121{fill:url(#linear-gradient-106);}.cls-122{fill:url(#linear-gradient-107);}.cls-123{fill:url(#linear-gradient-108);}.cls-124{fill:url(#New_Gradient_Swatch_copy_22);}.cls-125{fill:url(#linear-gradient-109);}.cls-126{fill:url(#linear-gradient-110);}.cls-127{fill:url(#New_Gradient_Swatch_copy_22-2);}.cls-128{fill:url(#linear-gradient-111);}.cls-129{fill:url(#linear-gradient-112);}.cls-130{fill:url(#New_Gradient_Swatch_copy_22-3);}.cls-131{fill:url(#linear-gradient-113);}.cls-132{fill:url(#linear-gradient-114);}.cls-133{fill:url(#New_Gradient_Swatch_copy_22-4);}.cls-134{fill:url(#linear-gradient-115);}.cls-135{fill:url(#linear-gradient-116);}.cls-136{fill:url(#New_Gradient_Swatch_copy_22-5);}.cls-137{fill:url(#linear-gradient-117);}.cls-138{fill:url(#linear-gradient-118);}.cls-139{fill:url(#New_Gradient_Swatch_copy_22-6);}.cls-140{fill:url(#linear-gradient-119);}.cls-141{fill:url(#linear-gradient-120);}.cls-142{fill:url(#New_Gradient_Swatch_copy_22-7);}.cls-143{fill:url(#linear-gradient-121);}.cls-144{fill:url(#linear-gradient-122);}.cls-145{fill:url(#New_Gradient_Swatch_copy_22-8);}.cls-146{fill:url(#linear-gradient-123);}.cls-147{fill:url(#linear-gradient-124);}.cls-148{fill:url(#linear-gradient-125);}.cls-149{fill:url(#linear-gradient-126);}.cls-150{fill:url(#linear-gradient-127);}.cls-151{fill:url(#linear-gradient-128);}.cls-152{fill:url(#linear-gradient-129);}.cls-153{fill:url(#New_Gradient_Swatch_copy_18-2);}.cls-154{fill:url(#New_Gradient_Swatch_copy_18-3);}.cls-155{fill:url(#New_Gradient_Swatch_copy_18-4);}.cls-156{fill:url(#New_Gradient_Swatch_copy_22-9);}.cls-157{fill:url(#linear-gradient-130);}.cls-158{fill:url(#linear-gradient-131);}.cls-159{fill:url(#New_Gradient_Swatch_copy_22-10);}.cls-160{fill:url(#linear-gradient-132);}.cls-161{fill:url(#linear-gradient-133);}.cls-162{fill:url(#New_Gradient_Swatch_copy_22-11);}.cls-163{fill:url(#linear-gradient-134);}.cls-164{fill:url(#linear-gradient-135);}.cls-165{fill:url(#New_Gradient_Swatch_copy_22-12);}.cls-166{fill:url(#linear-gradient-136);}.cls-167{fill:url(#linear-gradient-137);}.cls-168{fill:url(#New_Gradient_Swatch_copy_22-13);}.cls-169{fill:url(#linear-gradient-138);}.cls-170{fill:url(#linear-gradient-139);}.cls-171{fill:url(#New_Gradient_Swatch_copy_22-14);}.cls-172{fill:url(#linear-gradient-140);}.cls-173{fill:url(#linear-gradient-141);}.cls-174,.cls-188,.cls-189{opacity:0.3;}.cls-174{fill:url(#linear-gradient-142);}.cls-175,.cls-190{opacity:0.6;}.cls-175{fill:url(#linear-gradient-143);}.cls-176{fill:url(#linear-gradient-144);}.cls-177{fill:url(#linear-gradient-145);}.cls-178{fill:url(#linear-gradient-146);}.cls-179{fill:url(#linear-gradient-147);}.cls-180{fill:url(#linear-gradient-148);}.cls-181{fill:url(#linear-gradient-149);}.cls-182{fill:url(#linear-gradient-150);}.cls-183{fill:url(#linear-gradient-151);}.cls-184{fill:url(#linear-gradient-152);}.cls-185{fill:url(#linear-gradient-153);}.cls-186{fill:url(#linear-gradient-154);}.cls-187{fill:url(#linear-gradient-155);}.cls-188,.cls-189,.cls-190{stroke:#fff;stroke-width:0.73px;}.cls-188{fill:url(#linear-gradient-156);}.cls-189{fill:url(#linear-gradient-157);}.cls-190{fill:url(#linear-gradient-158);}.cls-191{fill:#ffdf7b;}.cls-192{fill:url(#linear-gradient-159);}.cls-193{fill:url(#linear-gradient-160);}.cls-194{fill:url(#linear-gradient-161);}.cls-195{fill:url(#linear-gradient-162);}.cls-196{fill:#1866a1;}.cls-197{fill:url(#linear-gradient-163);}.cls-198{fill:url(#linear-gradient-164);}.cls-199{fill:url(#linear-gradient-165);}.cls-200{fill:url(#linear-gradient-166);}.cls-201{fill:url(#linear-gradient-167);}.cls-202{fill:url(#linear-gradient-168);}.cls-203{fill:url(#linear-gradient-169);}.cls-204{fill:url(#linear-gradient-170);}.cls-205{fill:url(#linear-gradient-171);}.cls-206{fill:url(#linear-gradient-172);}.cls-207{fill:#0a5793;}.cls-208{fill:#eaebf9;}.cls-209{fill:#4092cc;}.cls-210{fill:url(#New_Gradient_Swatch_copy_9-2);}.cls-211{fill:url(#New_Gradient_Swatch_copy_10-2);}</style><linearGradient id="linear-gradient" x1="43.88" y1="337.23" x2="110.12" y2="337.23" gradientUnits="userSpaceOnUse"><stop offset="0" stop-color="#95ccdc"/><stop offset="1" stop-color="#d4eff6"/></linearGradient><linearGradient id="linear-gradient-2" x1="422.38" y1="511.09" x2="531.62" y2="511.09" gradientUnits="userSpaceOnUse"><stop offset="0" stop-color="#bfe3ed"/><stop offset="1" stop-color="#e9faff"/></linearGradient><linearGradient id="linear-gradient-3" x1="650.58" y1="345.17" x2="730.99" y2="345.17" xlink:href="#linear-gradient-2"/><linearGradient id="linear-gradient-4" x1="463.47" y1="148.82" x2="520.53" y2="148.82" xlink:href="#linear-gradient-2"/><linearGradient id="linear-gradient-5" x1="291.8" y1="225.46" x2="372.2" y2="225.46" xlink:href="#linear-gradient-2"/><linearGradient id="linear-gradient-6" x1="341.61" y1="534.17" x2="424" y2="534.17" xlink:href="#linear-gradient-2"/><linearGradient id="linear-gradient-7" x1="401.82" y1="302.97" x2="392.19" y2="529.67" gradientUnits="userSpaceOnUse"><stop offset="0" stop-color="#4b1b69"/><stop offset="1" stop-color="#4b1b69" stop-opacity="0"/></linearGradient><linearGradient id="linear-gradient-8" x1="608.56" y1="217.61" x2="604.14" y2="321.75" xlink:href="#linear-gradient-7"/><linearGradient id="linear-gradient-9" x1="186.45" y1="472.86" x2="182.03" y2="577" xlink:href="#linear-gradient-7"/><linearGradient id="linear-gradient-10" x1="616.87" y1="466.99" x2="612.44" y2="571.13" xlink:href="#linear-gradient-7"/><linearGradient id="linear-gradient-11" x1="193.65" y1="226.87" x2="189.23" y2="331.01" xlink:href="#linear-gradient-7"/><linearGradient id="linear-gradient-12" x1="246.71" y1="401.18" x2="550.6" y2="401.18" gradientUnits="userSpaceOnUse"><stop offset="0" stop-color="#e78f46"/><stop offset="1" stop-color="#f7c469"/></linearGradient><linearGradient id="linear-gradient-13" x1="238.59" y1="390.15" x2="558.72" y2="390.15" gradientUnits="userSpaceOnUse"><stop offset="0" stop-color="#5e2d7d"/><stop offset="1" stop-color="#9864b8"/></linearGradient><linearGradient id="linear-gradient-14" x1="238.59" y1="391.39" x2="558.72" y2="391.39" xlink:href="#linear-gradient-12"/><linearGradient id="New_Gradient_Swatch_copy_2" x1="238.58" y1="326.62" x2="558.62" y2="326.62" gradientUnits="userSpaceOnUse"><stop offset="0" stop-color="#dcb3f7"/><stop offset="1" stop-color="#ab76cc"/></linearGradient><linearGradient id="New_Gradient_Swatch" x1="271.6" y1="326.62" x2="525.6" y2="326.62" gradientUnits="userSpaceOnUse"><stop offset="0" stop-color="#713f91"/><stop offset="1" stop-color="#5e2d7d"/></linearGradient><linearGradient id="linear-gradient-15" x1="399.98" y1="387.62" x2="396.77" y2="273.2" xlink:href="#linear-gradient-13"/><linearGradient id="linear-gradient-16" x1="397.89" y1="252.87" x2="398.34" y2="307.36" gradientUnits="userSpaceOnUse"><stop offset="0" stop-color="#de7535"/><stop offset="1" stop-color="#efaa58"/></linearGradient><linearGradient id="linear-gradient-17" x1="1005.81" y1="236.27" x2="1024.64" y2="236.27" gradientTransform="matrix(-1, 0, 0, 1, 1385.57, 0)" xlink:href="#linear-gradient-16"/><linearGradient id="linear-gradient-18" x1="258.76" y1="236.27" x2="277.59" y2="236.27" gradientTransform="translate(159.26)" xlink:href="#linear-gradient-16"/><linearGradient id="linear-gradient-19" x1="170.72" y1="254.59" x2="210.41" y2="254.59" gradientTransform="translate(207.84)" gradientUnits="userSpaceOnUse"><stop offset="0" stop-color="#0a5793"/><stop offset="1" stop-color="#4092cc"/></linearGradient><linearGradient id="linear-gradient-20" x1="160.43" y1="177.1" x2="220.75" y2="177.1" gradientTransform="translate(207.84)" xlink:href="#linear-gradient-2"/><linearGradient id="linear-gradient-21" x1="168.3" y1="83.94" x2="212.85" y2="83.94" xlink:href="#linear-gradient-19"/><linearGradient id="linear-gradient-22" x1="168.31" y1="102.14" x2="169.23" y2="103.78" gradientTransform="translate(207.84)" gradientUnits="userSpaceOnUse"><stop offset="0" stop-color="#cce9f5"/><stop offset="0.17" stop-color="#f2fffa"/><stop offset="1" stop-color="#8ea4df"/></linearGradient><linearGradient id="linear-gradient-23" x1="211.93" y1="102.19" x2="212.95" y2="104.01" xlink:href="#linear-gradient-22"/><linearGradient id="linear-gradient-24" x1="162.42" y1="206.59" x2="218.8" y2="206.59" gradientTransform="translate(207.84)" gradientUnits="userSpaceOnUse"><stop offset="0" stop-color="#2d9ba1"/><stop offset="1" stop-color="#5be4e8"/></linearGradient><linearGradient id="linear-gradient-25" x1="370.73" y1="209.22" x2="423.7" y2="209.22" gradientUnits="userSpaceOnUse"><stop offset="0" stop-color="#56aac1"/><stop offset="1" stop-color="#80c1d3"/></linearGradient><linearGradient id="linear-gradient-26" x1="424.9" y1="204.97" x2="425.7" y2="204.97" xlink:href="#linear-gradient-25"/><linearGradient id="linear-gradient-27" x1="161.58" y1="198.05" x2="219.59" y2="198.05" xlink:href="#linear-gradient-24"/><linearGradient id="linear-gradient-28" x1="369.92" y1="200.9" x2="426.6" y2="200.9" xlink:href="#linear-gradient-25"/><linearGradient id="linear-gradient-29" x1="368.27" y1="157.5" x2="398.41" y2="157.5" gradientUnits="userSpaceOnUse"><stop offset="0" stop-color="#95ccdc"/><stop offset="1" stop-color="#bfe3ed"/></linearGradient><linearGradient id="linear-gradient-30" x1="205.47" y1="253.29" x2="227.8" y2="253.29" gradientTransform="translate(207.84)" gradientUnits="userSpaceOnUse"><stop offset="0" stop-color="#d65a23"/><stop offset="1" stop-color="#ce4012"/></linearGradient><linearGradient id="linear-gradient-31" x1="203.92" y1="253.66" x2="226.24" y2="253.66" gradientTransform="translate(207.84)" xlink:href="#linear-gradient-16"/><linearGradient id="linear-gradient-32" x1="995.31" y1="253.29" x2="1017.63" y2="253.29" gradientTransform="matrix(-1, 0, 0, 1, 1380.14, 0)" xlink:href="#linear-gradient-30"/><linearGradient id="linear-gradient-33" x1="993.76" y1="253.66" x2="1016.08" y2="253.66" gradientTransform="matrix(-1, 0, 0, 1, 1380.14, 0)" xlink:href="#linear-gradient-16"/><linearGradient id="linear-gradient-34" x1="177.98" y1="168.8" x2="203.24" y2="168.8" xlink:href="#linear-gradient-19"/><linearGradient id="linear-gradient-35" x1="179.32" y1="168.81" x2="201.9" y2="168.81" gradientTransform="translate(207.84)" gradientUnits="userSpaceOnUse"><stop offset="0.01" stop-color="#a2bbe6"/><stop offset="1" stop-color="#cce9f5"/></linearGradient><linearGradient id="linear-gradient-36" x1="184.14" y1="137.58" x2="196.71" y2="137.58" xlink:href="#linear-gradient-19"/><linearGradient id="linear-gradient-37" x1="185.16" y1="137.58" x2="195.69" y2="137.58" xlink:href="#linear-gradient-35"/><linearGradient id="linear-gradient-38" x1="235.8" y1="126.53" x2="236.55" y2="218.63" gradientTransform="translate(207.84)" gradientUnits="userSpaceOnUse"><stop offset="0" stop-color="#de7535"/><stop offset="0.12" stop-color="#de7535" stop-opacity="0.98"/><stop offset="0.25" stop-color="#de7535" stop-opacity="0.92"/><stop offset="0.39" stop-color="#de7535" stop-opacity="0.82"/><stop offset="0.54" stop-color="#de7535" stop-opacity="0.68"/><stop offset="0.69" stop-color="#de7535" stop-opacity="0.49"/><stop offset="0.84" stop-color="#de7535" stop-opacity="0.27"/><stop offset="0.99" stop-color="#de7535" stop-opacity="0.01"/><stop offset="1" stop-color="#de7535" stop-opacity="0"/></linearGradient><linearGradient id="linear-gradient-39" x1="145.57" y1="105.44" x2="145.98" y2="155.49" xlink:href="#linear-gradient-38"/><linearGradient id="linear-gradient-40" x1="135.87" y1="146.32" x2="136.73" y2="250.72" xlink:href="#linear-gradient-38"/><linearGradient id="linear-gradient-41" x1="148.44" y1="196.22" x2="148.73" y2="230.96" xlink:href="#linear-gradient-38"/><linearGradient id="linear-gradient-42" x1="176.67" y1="234.23" x2="176.92" y2="264.11" xlink:href="#linear-gradient-38"/><linearGradient id="linear-gradient-43" x1="229.26" y1="186.12" x2="229.58" y2="225.04" xlink:href="#linear-gradient-38"/><linearGradient id="linear-gradient-44" x1="197.46" y1="89.15" x2="197.67" y2="114.36" xlink:href="#linear-gradient-38"/><linearGradient id="linear-gradient-45" x1="537.3" y1="262.73" x2="676.91" y2="262.73" xlink:href="#linear-gradient-12"/><linearGradient id="linear-gradient-46" x1="599.32" y1="243.35" x2="619.63" y2="243.35" gradientUnits="userSpaceOnUse"><stop offset="0" stop-color="#0a5793"/><stop offset="1" stop-color="#4092cc"/></linearGradient><linearGradient id="linear-gradient-47" x1="533.57" y1="199.85" x2="680.59" y2="199.85" gradientUnits="userSpaceOnUse"><stop offset="0" stop-color="#69bef7"/><stop offset="1" stop-color="#4ea1da"/></linearGradient><linearGradient id="linear-gradient-48" x1="548.74" y1="199.85" x2="665.42" y2="199.85" xlink:href="#linear-gradient-46"/><linearGradient id="linear-gradient-49" x1="551.84" y1="203.21" x2="662.32" y2="203.21" gradientUnits="userSpaceOnUse"><stop offset="0" stop-color="#4092cc"/><stop offset="1" stop-color="#4ea1da"/></linearGradient><linearGradient id="linear-gradient-50" x1="639.54" y1="-121.74" x2="625.74" y2="-121.74" gradientTransform="matrix(0.87, 0.5, 0, 1.15, 17.8, 60.54)" xlink:href="#linear-gradient-2"/><linearGradient id="linear-gradient-51" x1="621.68" y1="-112.6" x2="643.61" y2="-112.6" gradientTransform="matrix(0.87, 0.5, 0, 1.15, 17.8, 60.54)" xlink:href="#linear-gradient-2"/><linearGradient id="linear-gradient-52" x1="292.67" y1="-65.4" x2="712.28" y2="-65.4" gradientTransform="matrix(0.87, 0.5, 0, 1.15, 82.12, -114.21)" gradientUnits="userSpaceOnUse"><stop offset="0" stop-color="#d65a23"/><stop offset="1" stop-color="#ce4012"/></linearGradient><linearGradient id="linear-gradient-53" x1="315.79" y1="-53.54" x2="696.96" y2="-53.54" gradientTransform="matrix(0.87, 0.5, 0, 1.15, 82.12, -114.21)" gradientUnits="userSpaceOnUse"><stop offset="0" stop-color="#f7c469"/><stop offset="1" stop-color="#de7535"/></linearGradient><linearGradient id="linear-gradient-54" x1="-769.28" y1="-1102.4" x2="-748.18" y2="-1102.4" gradientTransform="translate(1176.14 -1008.58) rotate(-120)" gradientUnits="userSpaceOnUse"><stop offset="0" stop-color="#de7535"/><stop offset="1" stop-color="#d65a23"/></linearGradient><linearGradient id="linear-gradient-55" x1="597.8" y1="181.92" x2="602.78" y2="210.3" gradientTransform="translate(793.55 -404.95) rotate(89.69)" gradientUnits="userSpaceOnUse"><stop offset="0" stop-color="#ffdf7b"/><stop offset="1" stop-color="#efaa58"/></linearGradient><linearGradient id="linear-gradient-56" x1="-764.13" y1="-1101.17" x2="-747.27" y2="-1101.17" gradientTransform="translate(1176.14 -1008.58) rotate(-120)" gradientUnits="userSpaceOnUse"><stop offset="0" stop-color="#c62500"/><stop offset="1" stop-color="#ce4012"/></linearGradient><linearGradient id="linear-gradient-57" x1="-764.13" y1="-1101.48" x2="-748.11" y2="-1101.48" xlink:href="#linear-gradient-54"/><linearGradient id="linear-gradient-58" x1="-764.7" y1="-1099.75" x2="-743.6" y2="-1099.75" xlink:href="#linear-gradient-54"/><linearGradient id="linear-gradient-59" x1="597.8" y1="176.63" x2="602.78" y2="205.01" gradientTransform="translate(788.26 -410.21) rotate(89.69)" xlink:href="#linear-gradient-55"/><linearGradient id="linear-gradient-60" x1="-759.55" y1="-1098.52" x2="-742.68" y2="-1098.52" xlink:href="#linear-gradient-56"/><linearGradient id="linear-gradient-61" x1="-759.55" y1="-1098.84" x2="-743.53" y2="-1098.84" xlink:href="#linear-gradient-54"/><linearGradient id="linear-gradient-62" x1="-789.84" y1="-1077.31" x2="-768.74" y2="-1077.31" xlink:href="#linear-gradient-54"/><linearGradient id="linear-gradient-63" x1="629.8" y1="187.18" x2="634.78" y2="215.56" gradientTransform="translate(830.64 -431.71) rotate(89.69)" xlink:href="#linear-gradient-55"/><linearGradient id="linear-gradient-64" x1="-784.69" y1="-1076.09" x2="-767.83" y2="-1076.09" xlink:href="#linear-gradient-56"/><linearGradient id="linear-gradient-65" x1="-784.69" y1="-1076.4" x2="-768.67" y2="-1076.4" xlink:href="#linear-gradient-54"/><linearGradient id="linear-gradient-66" x1="-785.26" y1="-1074.67" x2="-764.16" y2="-1074.67" xlink:href="#linear-gradient-54"/><linearGradient id="linear-gradient-67" x1="629.8" y1="181.89" x2="634.78" y2="210.27" gradientTransform="translate(825.35 -436.98) rotate(89.69)" xlink:href="#linear-gradient-55"/><linearGradient id="linear-gradient-68" x1="-780.11" y1="-1073.44" x2="-763.25" y2="-1073.44" xlink:href="#linear-gradient-56"/><linearGradient id="linear-gradient-69" x1="-780.11" y1="-1073.75" x2="-764.09" y2="-1073.75" xlink:href="#linear-gradient-54"/><linearGradient id="linear-gradient-70" x1="-780.67" y1="-1072.02" x2="-759.57" y2="-1072.02" xlink:href="#linear-gradient-54"/><linearGradient id="linear-gradient-71" x1="629.8" y1="176.6" x2="634.78" y2="204.98" gradientTransform="translate(820.06 -442.25) rotate(89.69)" xlink:href="#linear-gradient-55"/><linearGradient id="linear-gradient-72" x1="-775.52" y1="-1070.79" x2="-758.66" y2="-1070.79" xlink:href="#linear-gradient-56"/><linearGradient id="linear-gradient-73" x1="-775.52" y1="-1071.11" x2="-759.5" y2="-1071.11" xlink:href="#linear-gradient-54"/><linearGradient id="linear-gradient-74" x1="-776.09" y1="-1069.37" x2="-754.99" y2="-1069.37" xlink:href="#linear-gradient-54"/><linearGradient id="linear-gradient-75" x1="629.8" y1="171.3" x2="634.78" y2="199.68" gradientTransform="translate(814.76 -447.51) rotate(89.69)" xlink:href="#linear-gradient-55"/><linearGradient id="linear-gradient-76" x1="-770.94" y1="-1068.15" x2="-754.08" y2="-1068.15" xlink:href="#linear-gradient-56"/><linearGradient id="linear-gradient-77" x1="-770.94" y1="-1068.46" x2="-754.92" y2="-1068.46" xlink:href="#linear-gradient-54"/><linearGradient id="linear-gradient-78" x1="-771.5" y1="-1066.73" x2="-750.4" y2="-1066.73" xlink:href="#linear-gradient-54"/><linearGradient id="linear-gradient-79" x1="629.8" y1="166.01" x2="634.78" y2="194.39" gradientTransform="translate(809.47 -452.78) rotate(89.69)" xlink:href="#linear-gradient-55"/><linearGradient id="linear-gradient-80" x1="-766.35" y1="-1065.5" x2="-749.49" y2="-1065.5" xlink:href="#linear-gradient-56"/><linearGradient id="linear-gradient-81" x1="-766.35" y1="-1065.81" x2="-750.33" y2="-1065.81" xlink:href="#linear-gradient-54"/><linearGradient id="linear-gradient-82" x1="-637.1" y1="-1486.52" x2="-616" y2="-1486.52" gradientTransform="matrix(-0.78, -0.63, 0.63, -0.78, 1025.25, -1350.42)" xlink:href="#linear-gradient-54"/><linearGradient id="linear-gradient-83" x1="199.04" y1="259.51" x2="204.03" y2="287.89" gradientTransform="translate(372.48 -76.55) rotate(-0.31)" xlink:href="#linear-gradient-55"/><linearGradient id="linear-gradient-84" x1="-631.95" y1="-1485.29" x2="-615.09" y2="-1485.29" gradientTransform="matrix(-0.78, -0.63, 0.63, -0.78, 1025.25, -1350.42)" xlink:href="#linear-gradient-56"/><linearGradient id="linear-gradient-85" x1="-631.95" y1="-1485.61" x2="-615.93" y2="-1485.61" gradientTransform="matrix(-0.78, -0.63, 0.63, -0.78, 1025.25, -1350.42)" xlink:href="#linear-gradient-54"/><linearGradient id="linear-gradient-86" x1="606.9" y1="230.85" x2="606.9" y2="121.78" gradientUnits="userSpaceOnUse"><stop offset="0" stop-color="#69bef7" stop-opacity="0.2"/><stop offset="0.24" stop-color="#69bef7" stop-opacity="0.5"/><stop offset="1" stop-color="#69bef7" stop-opacity="0"/></linearGradient><linearGradient id="linear-gradient-87" x1="115.2" y1="517.98" x2="254.8" y2="517.98" xlink:href="#linear-gradient-12"/><linearGradient id="linear-gradient-88" x1="177.21" y1="498.6" x2="197.53" y2="498.6" gradientUnits="userSpaceOnUse"><stop offset="0" stop-color="#2f5d10"/><stop offset="1" stop-color="#4c841a"/></linearGradient><linearGradient id="New_Gradient_Swatch_copy_11" x1="111.47" y1="455.1" x2="258.49" y2="455.1" gradientUnits="userSpaceOnUse"><stop offset="0" stop-color="#91b64e"/><stop offset="1" stop-color="#c5db75"/></linearGradient><linearGradient id="New_Gradient_Swatch_copy_9" x1="126.64" y1="455.1" x2="243.31" y2="455.1" gradientUnits="userSpaceOnUse"><stop offset="0" stop-color="#396a13"/><stop offset="1" stop-color="#6f9d34"/></linearGradient><linearGradient id="New_Gradient_Swatch_copy_10" x1="129.73" y1="458.46" x2="240.21" y2="458.46" gradientUnits="userSpaceOnUse"><stop offset="0" stop-color="#6f9d34"/><stop offset="1" stop-color="#a2c25b"/></linearGradient><linearGradient id="linear-gradient-89" x1="152.14" y1="310.37" x2="138.34" y2="310.37" gradientTransform="matrix(0.87, 0.5, 0, 1.15, 17.8, 60.54)" xlink:href="#linear-gradient-2"/><linearGradient id="linear-gradient-90" x1="134.27" y1="319.5" x2="156.2" y2="319.5" gradientTransform="matrix(0.87, 0.5, 0, 1.15, 17.8, 60.54)" xlink:href="#linear-gradient-2"/><linearGradient id="linear-gradient-91" x1="150.68" y1="456.86" x2="192.53" y2="456.86" xlink:href="#linear-gradient-29"/><linearGradient id="linear-gradient-92" x1="150.68" y1="452.31" x2="192.53" y2="452.31" xlink:href="#linear-gradient-2"/><linearGradient id="linear-gradient-93" x1="189.27" y1="455.85" x2="221.28" y2="455.85" gradientTransform="matrix(1, 0, 0, 1, 0, 0)" xlink:href="#linear-gradient-53"/><linearGradient id="linear-gradient-94" x1="184.79" y1="486.3" x2="184.79" y2="377.23" gradientUnits="userSpaceOnUse"><stop offset="0" stop-color="#c5db75" stop-opacity="0.2"/><stop offset="0.24" stop-color="#c5db75" stop-opacity="0.5"/><stop offset="1" stop-color="#c5db75" stop-opacity="0"/></linearGradient><linearGradient id="linear-gradient-95" x1="115.83" y1="454.33" x2="198.59" y2="454.33" gradientTransform="matrix(-1, 0, 0, 1, 325.79, -45.26)" xlink:href="#linear-gradient-53"/><linearGradient id="linear-gradient-96" x1="115.7" y1="470.39" x2="198.59" y2="470.39" gradientTransform="matrix(-1, 0, 0, 1, 325.79, -45.26)" xlink:href="#linear-gradient-54"/><linearGradient id="linear-gradient-97" x1="113.29" y1="478.89" x2="119.13" y2="478.89" gradientTransform="matrix(-1, 0, 0, 1, 325.79, -45.26)" xlink:href="#linear-gradient-25"/><linearGradient id="linear-gradient-98" x1="114.23" y1="476.31" x2="127.71" y2="476.31" gradientTransform="matrix(-1, 0, 0, 1, 325.79, -45.26)" xlink:href="#linear-gradient-2"/><linearGradient id="linear-gradient-99" x1="126.95" y1="447.6" x2="187.47" y2="447.6" gradientTransform="matrix(-1, 0, 0, 1, 325.79, -45.26)" xlink:href="#linear-gradient-54"/><linearGradient id="linear-gradient-100" x1="127.18" y1="449.75" x2="187.24" y2="449.75" gradientTransform="matrix(-1, 0, 0, 1, 325.79, -45.26)" xlink:href="#linear-gradient-56"/><linearGradient id="linear-gradient-101" x1="81.86" y1="495.58" x2="92.25" y2="495.58" gradientTransform="matrix(-1, 0, 0, 1, 325.79, -45.26)" gradientUnits="userSpaceOnUse"><stop offset="0" stop-color="#80c1d3"/><stop offset="1" stop-color="#bfe3ed"/></linearGradient><linearGradient id="New_Gradient_Swatch_copy_18" x1="82.8" y1="495.91" x2="90.17" y2="495.91" gradientTransform="matrix(-1, 0, 0, 1, 325.79, -45.26)" gradientUnits="userSpaceOnUse"><stop offset="0" stop-color="#eaebf9"/><stop offset="1" stop-color="#eaebf9" stop-opacity="0"/></linearGradient><linearGradient id="linear-gradient-102" x1="102.17" y1="479.92" x2="108.79" y2="491.45" gradientTransform="matrix(-1, 0, 0, 1, 325.79, -45.26)" gradientUnits="userSpaceOnUse"><stop offset="0" stop-color="#aad8e4"/><stop offset="0.49" stop-color="#e9faff"/><stop offset="1" stop-color="#56aac1"/></linearGradient><linearGradient id="linear-gradient-103" x1="1693.41" y1="326.8" x2="1771.76" y2="326.8" gradientTransform="matrix(0.87, 0.5, -1, 0.58, -1016.02, -663.08)" xlink:href="#linear-gradient-25"/><linearGradient id="linear-gradient-104" x1="168.01" y1="391.92" x2="188.63" y2="391.92" xlink:href="#linear-gradient-29"/><linearGradient id="linear-gradient-105" x1="1693.41" y1="292.94" x2="1717.37" y2="292.94" gradientTransform="matrix(0.87, 0.5, -1, 0.58, -1016.02, -663.08)" xlink:href="#linear-gradient-2"/><linearGradient id="linear-gradient-106" x1="1711.33" y1="291.73" x2="1714.12" y2="291.73" gradientTransform="matrix(0.87, 0.5, -1, 0.58, -1016.02, -663.08)" xlink:href="#linear-gradient-101"/><linearGradient id="linear-gradient-107" x1="1693.87" y1="299.24" x2="1714.12" y2="299.24" gradientTransform="matrix(0.87, 0.5, -1, 0.58, -1016.02, -663.08)" xlink:href="#linear-gradient-25"/><linearGradient id="linear-gradient-108" x1="1693.87" y1="290.52" x2="1711.33" y2="290.52" gradientTransform="matrix(0.87, 0.5, -1, 0.58, -1016.02, -663.08)" xlink:href="#linear-gradient-2"/><linearGradient id="New_Gradient_Swatch_copy_22" x1="170.42" y1="396.74" x2="171.97" y2="396.74" gradientUnits="userSpaceOnUse"><stop offset="0" stop-color="#71739e"/><stop offset="1" stop-color="#7f81a7"/></linearGradient><linearGradient id="linear-gradient-109" x1="1063.14" y1="419.57" x2="1065.91" y2="367.87" gradientTransform="matrix(-1, 0, 0, 1, 1235.33, 0)" xlink:href="#linear-gradient-2"/><linearGradient id="linear-gradient-110" x1="1063.63" y1="419.58" x2="1064.87" y2="419.58" gradientTransform="matrix(-1, 0, 0, 1, 1235.33, 0)" xlink:href="#linear-gradient-2"/><linearGradient id="New_Gradient_Swatch_copy_22-2" x1="185.41" y1="388.91" x2="186.96" y2="388.91" xlink:href="#New_Gradient_Swatch_copy_22"/><linearGradient id="linear-gradient-111" x1="1048.15" y1="411.73" x2="1050.92" y2="360.03" gradientTransform="matrix(-1, 0, 0, 1, 1235.33, 0)" xlink:href="#linear-gradient-2"/><linearGradient id="linear-gradient-112" x1="1048.64" y1="411.75" x2="1049.88" y2="411.75" gradientTransform="matrix(-1, 0, 0, 1, 1235.33, 0)" xlink:href="#linear-gradient-2"/><linearGradient id="New_Gradient_Swatch_copy_22-3" x1="164.38" y1="395.85" x2="165.94" y2="395.85" xlink:href="#New_Gradient_Swatch_copy_22"/><linearGradient id="linear-gradient-113" x1="306.81" y1="418.68" x2="309.57" y2="366.98" gradientTransform="translate(-142.64)" xlink:href="#linear-gradient-2"/><linearGradient id="linear-gradient-114" x1="307.29" y1="418.69" x2="308.53" y2="418.69" gradientTransform="translate(-142.64)" xlink:href="#linear-gradient-2"/><linearGradient id="New_Gradient_Swatch_copy_22-4" x1="161.54" y1="394.38" x2="163.1" y2="394.38" xlink:href="#New_Gradient_Swatch_copy_22"/><linearGradient id="linear-gradient-115" x1="303.97" y1="417.2" x2="306.73" y2="365.5" gradientTransform="translate(-142.64)" xlink:href="#linear-gradient-2"/><linearGradient id="linear-gradient-116" x1="304.45" y1="417.22" x2="305.69" y2="417.22" gradientTransform="translate(-142.64)" xlink:href="#linear-gradient-2"/><linearGradient id="New_Gradient_Swatch_copy_22-5" x1="158.7" y1="392.9" x2="160.26" y2="392.9" xlink:href="#New_Gradient_Swatch_copy_22"/><linearGradient id="linear-gradient-117" x1="301.13" y1="415.73" x2="303.89" y2="364.03" gradientTransform="translate(-142.64)" xlink:href="#linear-gradient-2"/><linearGradient id="linear-gradient-118" x1="301.61" y1="415.74" x2="302.85" y2="415.74" gradientTransform="translate(-142.64)" xlink:href="#linear-gradient-2"/><linearGradient id="New_Gradient_Swatch_copy_22-6" x1="155.86" y1="391.43" x2="157.42" y2="391.43" xlink:href="#New_Gradient_Swatch_copy_22"/><linearGradient id="linear-gradient-119" x1="298.29" y1="414.25" x2="301.05" y2="362.55" gradientTransform="translate(-142.64)" xlink:href="#linear-gradient-2"/><linearGradient id="linear-gradient-120" x1="298.77" y1="414.26" x2="300.01" y2="414.26" gradientTransform="translate(-142.64)" xlink:href="#linear-gradient-2"/><linearGradient id="New_Gradient_Swatch_copy_22-7" x1="153.02" y1="389.95" x2="154.58" y2="389.95" xlink:href="#New_Gradient_Swatch_copy_22"/><linearGradient id="linear-gradient-121" x1="295.45" y1="412.78" x2="298.21" y2="361.08" gradientTransform="translate(-142.64)" xlink:href="#linear-gradient-2"/><linearGradient id="linear-gradient-122" x1="295.93" y1="412.79" x2="297.17" y2="412.79" gradientTransform="translate(-142.64)" xlink:href="#linear-gradient-2"/><linearGradient id="New_Gradient_Swatch_copy_22-8" x1="150.18" y1="388.48" x2="151.74" y2="388.48" xlink:href="#New_Gradient_Swatch_copy_22"/><linearGradient id="linear-gradient-123" x1="292.61" y1="411.3" x2="295.37" y2="359.6" gradientTransform="translate(-142.64)" xlink:href="#linear-gradient-2"/><linearGradient id="linear-gradient-124" x1="293.09" y1="411.31" x2="294.33" y2="411.31" gradientTransform="translate(-142.64)" xlink:href="#linear-gradient-2"/><linearGradient id="linear-gradient-125" x1="173.56" y1="378.79" x2="188.8" y2="378.79" xlink:href="#linear-gradient-2"/><linearGradient id="linear-gradient-126" x1="174.76" y1="378.79" x2="187.59" y2="378.79" xlink:href="#linear-gradient-25"/><linearGradient id="linear-gradient-127" x1="175.38" y1="379.14" x2="186.98" y2="379.14" gradientTransform="matrix(1, 0, 0, 1, 0, 0)" xlink:href="#linear-gradient-101"/><linearGradient id="linear-gradient-128" x1="173.56" y1="402.57" x2="179.52" y2="402.57" xlink:href="#linear-gradient-25"/><linearGradient id="linear-gradient-129" x1="179.52" y1="401.61" x2="188.8" y2="401.61" xlink:href="#linear-gradient-29"/><linearGradient id="New_Gradient_Swatch_copy_18-2" x1="179.63" y1="358.42" x2="172.29" y2="393.8" gradientTransform="matrix(1, 0, 0, 1, 0, 0)" xlink:href="#New_Gradient_Swatch_copy_18"/><linearGradient id="New_Gradient_Swatch_copy_18-3" x1="190.38" y1="367.28" x2="186.3" y2="376.63" gradientTransform="matrix(1, 0, 0, 1, 0, 0)" xlink:href="#New_Gradient_Swatch_copy_18"/><linearGradient id="New_Gradient_Swatch_copy_18-4" x1="187.95" y1="373.75" x2="175.96" y2="401.21" gradientTransform="matrix(1, 0, 0, 1, 0, 0)" xlink:href="#New_Gradient_Swatch_copy_18"/><linearGradient id="New_Gradient_Swatch_copy_22-9" x1="180.91" y1="403.51" x2="182.47" y2="403.51" xlink:href="#New_Gradient_Swatch_copy_22"/><linearGradient id="linear-gradient-130" x1="1052.87" y1="422.15" x2="1055.13" y2="379.87" gradientTransform="matrix(-1, 0, 0, 1, 1235.33, 0)" xlink:href="#linear-gradient-2"/><linearGradient id="linear-gradient-131" x1="1053.14" y1="422.16" x2="1054.37" y2="422.16" gradientTransform="matrix(-1, 0, 0, 1, 1235.33, 0)" xlink:href="#linear-gradient-2"/><linearGradient id="New_Gradient_Swatch_copy_22-10" x1="183.75" y1="402.03" x2="185.31" y2="402.03" xlink:href="#New_Gradient_Swatch_copy_22"/><linearGradient id="linear-gradient-132" x1="1050.03" y1="420.67" x2="1052.29" y2="378.39" gradientTransform="matrix(-1, 0, 0, 1, 1235.33, 0)" xlink:href="#linear-gradient-2"/><linearGradient id="linear-gradient-133" x1="1050.3" y1="420.68" x2="1051.53" y2="420.68" gradientTransform="matrix(-1, 0, 0, 1, 1235.33, 0)" xlink:href="#linear-gradient-2"/><linearGradient id="New_Gradient_Swatch_copy_22-11" x1="186.59" y1="400.56" x2="188.15" y2="400.56" xlink:href="#New_Gradient_Swatch_copy_22"/><linearGradient id="linear-gradient-134" x1="1047.19" y1="419.19" x2="1049.45" y2="376.91" gradientTransform="matrix(-1, 0, 0, 1, 1235.33, 0)" xlink:href="#linear-gradient-2"/><linearGradient id="linear-gradient-135" x1="1047.46" y1="419.2" x2="1048.69" y2="419.2" gradientTransform="matrix(-1, 0, 0, 1, 1235.33, 0)" xlink:href="#linear-gradient-2"/><linearGradient id="New_Gradient_Swatch_copy_22-12" x1="173.72" y1="373.18" x2="182.91" y2="373.18" xlink:href="#New_Gradient_Swatch_copy_22"/><linearGradient id="linear-gradient-136" x1="1056.99" y1="377.98" x2="1057.58" y2="366.83" gradientTransform="matrix(-1, 0, 0, 1, 1235.33, 0)" xlink:href="#linear-gradient-2"/><linearGradient id="linear-gradient-137" x1="1054.03" y1="375.99" x2="1061.33" y2="375.99" gradientTransform="matrix(-1, 0, 0, 1, 1235.33, 0)" xlink:href="#linear-gradient-2"/><linearGradient id="New_Gradient_Swatch_copy_22-13" x1="177.21" y1="403.66" x2="178.76" y2="403.66" xlink:href="#New_Gradient_Swatch_copy_22"/><linearGradient id="linear-gradient-138" x1="538.91" y1="422.29" x2="541.17" y2="380.01" gradientTransform="translate(-361.69)" xlink:href="#linear-gradient-2"/><linearGradient id="linear-gradient-139" x1="539.17" y1="422.3" x2="540.41" y2="422.3" gradientTransform="translate(-361.69)" xlink:href="#linear-gradient-2"/><linearGradient id="New_Gradient_Swatch_copy_22-14" x1="174.37" y1="402.18" x2="175.92" y2="402.18" xlink:href="#New_Gradient_Swatch_copy_22"/><linearGradient id="linear-gradient-140" x1="536.07" y1="420.82" x2="538.33" y2="378.54" gradientTransform="translate(-361.69)" xlink:href="#linear-gradient-2"/><linearGradient id="linear-gradient-141" x1="536.33" y1="420.83" x2="537.57" y2="420.83" gradientTransform="translate(-361.69)" xlink:href="#linear-gradient-2"/><linearGradient id="linear-gradient-142" x1="1921.42" y1="72.39" x2="1935.52" y2="64.25" gradientTransform="matrix(-0.87, 0.5, 1, 0.58, 1774.52, -640)" xlink:href="#linear-gradient-16"/><linearGradient id="linear-gradient-143" x1="1924.66" y1="70.52" x2="1932.28" y2="66.13" gradientTransform="matrix(-0.87, 0.5, 1, 0.58, 1774.52, -640)" xlink:href="#linear-gradient-16"/><linearGradient id="linear-gradient-144" x1="165.49" y1="160.42" x2="185.5" y2="160.42" gradientTransform="matrix(0.87, -0.5, 0, 1.15, 15.92, 247.03)" xlink:href="#linear-gradient-54"/><linearGradient id="linear-gradient-145" x1="161.76" y1="345.89" x2="178.51" y2="345.89" gradientTransform="translate(382.88 24.45) rotate(59.69)" xlink:href="#linear-gradient-53"/><linearGradient id="linear-gradient-146" x1="163.4" y1="345.89" x2="176.87" y2="345.89" gradientTransform="matrix(1, 0, 0, 1, 0, 0)" xlink:href="#linear-gradient-53"/><linearGradient id="linear-gradient-147" x1="163.4" y1="345.64" x2="176.2" y2="345.64" gradientTransform="matrix(1, 0, 0, 1, 0, 0)" xlink:href="#linear-gradient-56"/><linearGradient id="linear-gradient-148" x1="545.61" y1="512.11" x2="685.21" y2="512.11" xlink:href="#linear-gradient-12"/><linearGradient id="linear-gradient-149" x1="607.62" y1="492.73" x2="627.94" y2="492.73" gradientUnits="userSpaceOnUse"><stop offset="0" stop-color="#21233a"/><stop offset="1" stop-color="#3c3e54"/></linearGradient><linearGradient id="linear-gradient-150" x1="541.88" y1="449.23" x2="688.9" y2="449.23" gradientUnits="userSpaceOnUse"><stop offset="0" stop-color="#4e5066"/><stop offset="1" stop-color="#8082a6"/></linearGradient><linearGradient id="linear-gradient-151" x1="557.05" y1="449.23" x2="673.73" y2="449.23" xlink:href="#linear-gradient-149"/><linearGradient id="linear-gradient-152" x1="560.14" y1="452.59" x2="670.62" y2="452.59" gradientUnits="userSpaceOnUse"><stop offset="0" stop-color="#33354b"/><stop offset="1" stop-color="#45475d"/></linearGradient><linearGradient id="linear-gradient-153" x1="649.13" y1="90.08" x2="635.34" y2="90.08" gradientTransform="matrix(0.87, 0.5, 0, 1.15, 17.8, 60.54)" xlink:href="#linear-gradient-2"/><linearGradient id="linear-gradient-154" x1="631.27" y1="99.22" x2="653.2" y2="99.22" gradientTransform="matrix(0.87, 0.5, 0, 1.15, 17.8, 60.54)" xlink:href="#linear-gradient-2"/><linearGradient id="linear-gradient-155" x1="615.21" y1="480.44" x2="615.21" y2="371.37" gradientUnits="userSpaceOnUse"><stop offset="0" stop-color="#aad8e4" stop-opacity="0.2"/><stop offset="0.24" stop-color="#aad8e4" stop-opacity="0.5"/><stop offset="1" stop-color="#aad8e4" stop-opacity="0"/></linearGradient><linearGradient id="linear-gradient-156" x1="577.57" y1="452.86" x2="652.02" y2="409.88" gradientUnits="userSpaceOnUse"><stop offset="0" stop-color="#d65a23"/><stop offset="1" stop-color="#efaa58"/></linearGradient><linearGradient id="linear-gradient-157" x1="1724.22" y1="371.07" x2="1768.79" y2="345.34" gradientTransform="matrix(-0.87, 0.5, 1, 0.58, 1774.94, -642.42)" xlink:href="#linear-gradient-156"/><linearGradient id="linear-gradient-158" x1="1733.57" y1="365.67" x2="1759.44" y2="350.74" gradientTransform="matrix(-0.87, 0.5, 1, 0.58, 1774.94, -642.42)" xlink:href="#linear-gradient-156"/><linearGradient id="linear-gradient-159" x1="598.1" y1="441.17" x2="604.48" y2="446.17" gradientTransform="matrix(1, 0, 0, 1, 0, 0)" xlink:href="#New_Gradient_Swatch_copy_18"/><linearGradient id="linear-gradient-160" x1="-43.77" y1="341.06" x2="-67.35" y2="412.44" gradientTransform="matrix(-1, 0, 0, 1, 565.17, 0)" gradientUnits="userSpaceOnUse"><stop offset="0" stop-color="#3383be"/><stop offset="1" stop-color="#0a5793"/></linearGradient><linearGradient id="linear-gradient-161" x1="-125.9" y1="15.34" x2="-62.87" y2="15.34" gradientTransform="matrix(-0.87, -0.5, 0, 1.15, 530.51, 325.18)" gradientUnits="userSpaceOnUse"><stop offset="0" stop-color="#69bef7"/><stop offset="1" stop-color="#4092cc"/></linearGradient><linearGradient id="linear-gradient-162" x1="-110.14" y1="6.86" x2="-78.63" y2="6.86" gradientTransform="matrix(-0.5, -0.87, -0.58, 1, 569.5, 291.46)" xlink:href="#linear-gradient-2"/><linearGradient id="linear-gradient-163" x1="122.4" y1="271.99" x2="262" y2="271.99" xlink:href="#linear-gradient-12"/><linearGradient id="linear-gradient-164" x1="184.41" y1="252.61" x2="204.73" y2="252.61" gradientUnits="userSpaceOnUse"><stop offset="0" stop-color="#0b656c"/><stop offset="1" stop-color="#39aeb3"/></linearGradient><linearGradient id="linear-gradient-165" x1="118.67" y1="209.11" x2="265.69" y2="209.11" gradientUnits="userSpaceOnUse"><stop offset="0" stop-color="#44c0c5"/><stop offset="1" stop-color="#5be4e8"/></linearGradient><linearGradient id="linear-gradient-166" x1="133.84" y1="209.11" x2="250.52" y2="209.11" xlink:href="#linear-gradient-164"/><linearGradient id="linear-gradient-167" x1="136.93" y1="212.47" x2="247.41" y2="212.47" gradientUnits="userSpaceOnUse"><stop offset="0" stop-color="#22898f"/><stop offset="1" stop-color="#44c0c5"/></linearGradient><linearGradient id="linear-gradient-168" x1="160.45" y1="93.73" x2="146.66" y2="93.73" gradientTransform="matrix(0.87, 0.5, 0, 1.15, 17.8, 60.54)" xlink:href="#linear-gradient-2"/><linearGradient id="linear-gradient-169" x1="142.59" y1="102.87" x2="164.52" y2="102.87" gradientTransform="matrix(0.87, 0.5, 0, 1.15, 17.8, 60.54)" xlink:href="#linear-gradient-2"/><linearGradient id="linear-gradient-170" x1="192" y1="240.31" x2="192" y2="131.25" gradientUnits="userSpaceOnUse"><stop offset="0" stop-color="#5be4e8" stop-opacity="0.2"/><stop offset="0.24" stop-color="#5be4e8" stop-opacity="0.5"/><stop offset="1" stop-color="#5be4e8" stop-opacity="0"/></linearGradient><linearGradient id="linear-gradient-171" x1="1336.09" y1="-1793.46" x2="1345.78" y2="-1815.06" gradientTransform="translate(-696.26 -1907.79) rotate(120)" gradientUnits="userSpaceOnUse"><stop offset="0" stop-color="#aad8e4"/><stop offset="1" stop-color="#56aac1"/></linearGradient><linearGradient id="linear-gradient-172" x1="1320.19" y1="-1771.39" x2="1404.85" y2="-1849.54" gradientTransform="translate(-696.26 -1907.79) rotate(120)" xlink:href="#linear-gradient-2"/><linearGradient id="New_Gradient_Swatch_copy_9-2" x1="195.96" y1="140.76" x2="225.2" y2="140.76" xlink:href="#New_Gradient_Swatch_copy_9"/><linearGradient id="New_Gradient_Swatch_copy_10-2" x1="192.24" y1="142.04" x2="220.82" y2="142.04" gradientTransform="translate(99.92 -84.82) rotate(30.31)" xlink:href="#New_Gradient_Swatch_copy_10"/></defs><g class="cls-1"><g id="ILLUSTRATIONS"><g id="COMPETITIVE_MARKET" data-name="COMPETITIVE MARKET"><path class="cls-2" d="M110.11,337.34a2.33,2.33,0,0,1-1.29,1.6L80,355.6a5.86,5.86,0,0,1-5.3.22L44.8,338.59a1.59,1.59,0,0,1-.92-1.28v-.08a2.24,2.24,0,0,1,1.3-1.7l28.87-16.67a5.92,5.92,0,0,1,5.3-.22l29.85,17.23A1.53,1.53,0,0,1,110.11,337.34Z"/><path class="cls-3" d="M531.61,511.26a3.83,3.83,0,0,1-2.13,2.64l-47.61,27.48c-2.59,1.5-6.51,1.66-8.75.37l-49.23-28.42a2.65,2.65,0,0,1-1.51-2.11v-.13a3.63,3.63,0,0,1,2.14-2.81l47.61-27.49c2.59-1.5,6.51-1.66,8.75-.36l49.23,28.42A2.52,2.52,0,0,1,531.61,511.26Z"/><path class="cls-4" d="M731,345.29a2.77,2.77,0,0,1-1.57,1.95l-35,20.23a7.14,7.14,0,0,1-6.44.26L651.7,346.82a2,2,0,0,1-1.12-1.56v-.09a2.68,2.68,0,0,1,1.58-2.07l35-20.23a7.17,7.17,0,0,1,6.44-.27l36.23,20.92A1.84,1.84,0,0,1,731,345.29Z"/><path class="cls-5" d="M520.52,148.91a2,2,0,0,1-1.11,1.38l-24.87,14.35a5.07,5.07,0,0,1-4.57.19L464.26,150a1.4,1.4,0,0,1-.79-1.1v-.07a1.94,1.94,0,0,1,1.12-1.47L489.46,133a5.07,5.07,0,0,1,4.57-.19l25.7,14.84A1.31,1.31,0,0,1,520.52,148.91Z"/><path class="cls-6" d="M372.19,225.58a2.78,2.78,0,0,1-1.57,1.94l-35,20.23a7.14,7.14,0,0,1-6.44.27L292.91,227.1a1.92,1.92,0,0,1-1.11-1.55v-.09a2.65,2.65,0,0,1,1.57-2.07l35.05-20.23a7.14,7.14,0,0,1,6.44-.27l36.23,20.92A1.85,1.85,0,0,1,372.19,225.58Z"/><path class="cls-7" d="M424,534.3a2.88,2.88,0,0,1-1.61,2L386.47,557a7.35,7.35,0,0,1-6.6.27l-37.12-21.43a2,2,0,0,1-1.14-1.6v-.09a2.72,2.72,0,0,1,1.61-2.12l35.91-20.73a7.32,7.32,0,0,1,6.6-.28l37.12,21.44A1.9,1.9,0,0,1,424,534.3Z"/><polyline class="cls-8" points="598.12 256.52 395.6 372.81 615.62 499.84"/><polyline class="cls-8" points="167.5 242.38 395.6 372.81 170.18 502.96"/><path class="cls-9" d="M558.59,379.09c-.29,2.71-2.4,5.5-6.25,7.73L412.86,467.35c-7.59,4.38-19.06,4.86-25.63,1.06L243,385.15c-2.88-1.66-4.34-3.87-4.43-6.18a2.41,2.41,0,0,1,0-.38c.06-2.87,2.19-5.87,6.27-8.23l139.48-80.53c7.59-4.38,19.06-4.86,25.63-1.06L554.18,372C557.42,373.9,558.86,376.45,558.59,379.09Z"/><path class="cls-10" d="M680.58,252.58c-.14,1.24-1.11,2.52-2.87,3.55l-64.08,37c-3.48,2-8.75,2.23-11.77.49l-66.25-38.25a3.54,3.54,0,0,1-2-2.84.48.48,0,0,1,0-.17c0-1.32,1-2.7,2.88-3.78l64.07-37c3.49-2,8.76-2.23,11.77-.48l66.25,38.24A3.41,3.41,0,0,1,680.58,252.58Z"/><path class="cls-11" d="M258.47,507.83c-.13,1.24-1.1,2.52-2.87,3.55l-64.07,37c-3.49,2-8.76,2.23-11.78.49l-66.24-38.25a3.53,3.53,0,0,1-2-2.84v-.17c0-1.32,1-2.7,2.88-3.78l64.08-37c3.48-2,8.75-2.23,11.77-.48l66.25,38.24A3.4,3.4,0,0,1,258.47,507.83Z"/><path class="cls-12" d="M688.88,502c-.13,1.24-1.1,2.53-2.87,3.55l-64.07,37c-3.49,2-8.76,2.24-11.77.49l-66.25-38.25a3.54,3.54,0,0,1-2-2.84v-.17c0-1.32,1-2.7,2.88-3.78l64.08-37c3.48-2,8.75-2.24,11.77-.49l66.25,38.25A3.38,3.38,0,0,1,688.88,502Z"/><path class="cls-13" d="M265.67,261.84c-.13,1.24-1.1,2.53-2.87,3.55l-64.07,37c-3.49,2-8.76,2.24-11.78.49l-66.24-38.25a3.53,3.53,0,0,1-2-2.84v-.17c0-1.32,1-2.7,2.88-3.78l64.08-37c3.48-2,8.75-2.23,11.77-.48l66.25,38.25A3.37,3.37,0,0,1,265.67,261.84Z"/><path class="cls-14" d="M550.46,374c-.31,2.55-2.32,5.16-5.91,7.24L412.14,457.69c-7.21,4.16-18.09,4.61-24.33,1l-136.9-79c-2.87-1.66-4.26-3.89-4.2-6.23,0-2.54,0-28.8,0-32.19.08,2.19,1.47,4.29,4.2,5.86l136.9,79c6.24,3.61,17.12,3.15,24.33-1l132.41-76.44c3.65-2.12,5.65-4.77,5.93-7.34C550.53,347,550.74,371.75,550.46,374Z"/><path class="cls-15" d="M558.57,361.53c-.33,2.68-2.44,5.43-6.23,7.62L412.86,449.68c-7.59,4.38-19.06,4.85-25.63,1.06L243,367.48c-3-1.75-4.49-4.1-4.43-6.56.06-2.68,0-30.34,0-33.92.09,2.31,1.55,4.52,4.43,6.18l144.21,83.26c6.57,3.8,18,3.32,25.63-1.06l139.48-80.53c3.85-2.23,6-5,6.25-7.73C558.64,333,558.86,359.15,558.57,361.53Z"/><path class="cls-16" d="M558.57,349.78c-.33,2.68-2.44,5.43-6.23,7.62L412.86,437.93c-7.59,4.38-19.06,4.85-25.63,1.06L243,355.73c-3-1.75-4.49-4.1-4.43-6.56.06-2.68,0-4.36,0-7.94.09,2.31,1.55,4.52,4.43,6.18l144.21,83.26c6.57,3.8,18,3.32,25.63-1.06l139.48-80.53c3.85-2.23,6-5,6.25-7.73C558.64,347.25,558.86,347.4,558.57,349.78Z"/><path class="cls-17" d="M558.59,327.12c-.29,2.71-2.4,5.5-6.25,7.73L412.86,415.38c-7.59,4.38-19.06,4.86-25.63,1.06L243,333.18c-2.88-1.66-4.34-3.87-4.43-6.18a2.41,2.41,0,0,1,0-.38c.06-2.87,2.19-5.87,6.27-8.23l139.48-80.53c7.59-4.38,19.06-4.86,25.63-1.06l144.21,83.26C557.42,321.93,558.86,324.48,558.59,327.12Z"/><path class="cls-18" d="M525.57,327c-.23,2.15-1.9,4.36-5,6.13l-9.11,5.26L409.92,397.06c-6,3.48-15.13,3.86-20.34.84l-103.89-60-10.56-6.1c-2.29-1.32-3.45-3.08-3.52-4.91a1.5,1.5,0,0,1,0-.3c.05-2.28,1.74-4.66,5-6.53l110.69-63.91c6-3.48,15.13-3.86,20.34-.84l114.45,66.07C524.65,322.9,525.79,324.92,525.57,327Z"/><path class="cls-19" d="M511.5,338.41,409.92,397.06c-6,3.48-15.13,3.86-20.34.84l-103.89-60,101.59-58.66c6-3.48,15.13-3.86,20.34-.84Z"/><polygon class="cls-20" points="411.08 258.7 422.92 303.53 373.67 301.47 386.38 252.02 411.08 258.7"/><path class="cls-21" d="M311.9,311.24a13.29,13.29,0,0,0,25.16,6,13.11,13.11,0,0,0,1.44-6,13.32,13.32,0,0,0-20.9-10.95A13.42,13.42,0,0,0,311.9,311.24Z"/><path class="cls-22" d="M316.11,306.43a13.28,13.28,0,0,0,13.32,13.27,13,13,0,0,0,7.63-2.43,13.11,13.11,0,0,0,1.44-6,13.32,13.32,0,0,0-20.9-10.95A13.45,13.45,0,0,0,316.11,306.43Z"/><path class="cls-22" d="M359,319.31a37.07,37.07,0,0,0,9.68,25.11,30.22,30.22,0,0,0,5.14,4.81,37.63,37.63,0,0,0,56.51-13.05,27.37,27.37,0,0,0,2.6-6.8,35.73,35.73,0,0,0,1.44-10.07,37.64,37.64,0,0,0-74.82-6A31,31,0,0,0,359,319.31Z"/><path class="cls-22" d="M338.11,334.3a21,21,0,0,0,41.92,0,11.56,11.56,0,0,0-.06-1.44c-.05-.55-.16-1.21-.22-1.82V331a21,21,0,0,0-20.24-17.64h-.44a20.91,20.91,0,0,0-18.52,11.23l-.06.05A20.4,20.4,0,0,0,338.11,334.3Z"/><path class="cls-22" d="M411.43,312.57a24.18,24.18,0,0,0,18.86,23.61,22.16,22.16,0,0,0,5.42.66,24.28,24.28,0,0,0,0-48.55,24,24,0,0,0-13,3.82A24.2,24.2,0,0,0,411.43,312.57Z"/><path class="cls-21" d="M338.11,334.3a21,21,0,0,0,35.67,14.93,37.63,37.63,0,0,0,56.51-13.05,22.16,22.16,0,0,0,5.42.66,24.31,24.31,0,0,0,24.11-27.09s-5.81,20-23.56,19.74c-1.16,0-2.32-.06-3.37-.11-15-1.05-19.3-6.91-19.3-6.91v.11c-.11,1.77,1.38,19.51-12.56,21.11-13.76,1.55-19.73.06-21.06-10.83-.05-.55-.16-1.21-.22-1.82-3.21,6.74-4.81,11-11.11,13.38a35.85,35.85,0,0,1-10.07,2c-15.42,1.44-21.89-9.89-18-21.89l-.06.05A20.4,20.4,0,0,0,338.11,334.3Z"/><path class="cls-21" d="M394.74,350.17a20.6,20.6,0,0,0,.22,3.26c.05,0,.05,0,0,.06a24.27,24.27,0,0,0,48.32-3.32,24.6,24.6,0,0,0-1.88-9.46v0a24.3,24.3,0,0,0-46.66,9.51Z"/><path class="cls-22" d="M394.74,350.17a20.6,20.6,0,0,0,.22,3.26c.05,0,.05,0,0,.06A24.31,24.31,0,0,0,441.63,344a20.64,20.64,0,0,0-.23-3.27v0a24.3,24.3,0,0,0-46.66,9.51Z"/><path class="cls-21" d="M402.28,306.88a13.48,13.48,0,0,0,.14,2s0,0,0,0a15.08,15.08,0,0,0,30-2.06,15.41,15.41,0,0,0-1.17-5.87v0a15.1,15.1,0,0,0-29,5.91Z"/><path class="cls-22" d="M402.28,306.88a13.48,13.48,0,0,0,.14,2s0,0,0,0a15.1,15.1,0,0,0,29-5.9,13.48,13.48,0,0,0-.14-2v0a15.1,15.1,0,0,0-29,5.91Z"/><path class="cls-21" d="M460.89,325.89a13.49,13.49,0,0,0,.13,2s0,0,0,0a15.08,15.08,0,0,0,30-2.07,15.22,15.22,0,0,0-1.17-5.87v0a15.1,15.1,0,0,0-29,5.9Z"/><path class="cls-22" d="M460.89,325.89a13.49,13.49,0,0,0,.13,2s0,0,0,0a15.1,15.1,0,0,0,29-5.91,12.29,12.29,0,0,0-.14-2v0a15.1,15.1,0,0,0-29,5.9Z"/><path class="cls-23" d="M373.53,207.16c-5.71,2.06-12.6,10.21-12.6,58.24,11.76-35.12,18.83-26.54,18.83-26.54S376.58,206.07,373.53,207.16Z"/><path class="cls-24" d="M424.24,207.16c5.71,2.06,12.6,10.21,12.6,58.24C425.08,230.28,418,238.86,418,238.86S421.19,206.07,424.24,207.16Z"/><path class="cls-25" d="M418.25,243.94a89.13,89.13,0,0,1-6,14.93,1,1,0,0,1-.1.21l-.77,1.38a9.17,9.17,0,0,1-3,2.57c-3.84,2.2-9.31,2.86-14.13,2a19,19,0,0,1-5.83-2.05,9.56,9.56,0,0,1-3.07-2.63.11.11,0,0,0,0-.09l-.61-1.11a.11.11,0,0,1-.05-.09,88.35,88.35,0,0,1-6.13-15.3,16.91,16.91,0,0,0,2.77,1.9,30.87,30.87,0,0,0,10.6,3.57,38.1,38.1,0,0,0,6.6.55c6.18,0,12.36-1.34,17.09-4.07A18.9,18.9,0,0,0,418.25,243.94Z"/><path class="cls-26" d="M428.59,160.57c0,10.65-.43,20.91-1.2,30.64-.1,1.41-.21,2.8-.33,4.19s-.26,2.86-.42,4.27c-.05.45-.1.87-.14,1.32-.07.75-.15,1.5-.24,2.23,0,.28-.07.54-.09.8s-.1.8-.14,1.17c-.15,1.11-.26,2.19-.43,3.25-.14,1.24-.3,2.44-.49,3.64-.21,1.53-.45,3-.68,4.54-.82,5-1.72,9.77-2.73,14.24-.23,1.1-.49,2.16-.75,3.21-.49,2.1-1,4.12-1.57,6.07v0c-.38,1.29-.76,2.56-1.13,3.78a18.9,18.9,0,0,1-2.63,1.79c-4.73,2.73-10.91,4.07-17.09,4.07a38.1,38.1,0,0,1-6.6-.55,30.87,30.87,0,0,1-10.6-3.57,16.91,16.91,0,0,1-2.77-1.9c-.38-1.18-.73-2.4-1.08-3.64v0c-.57-2-1.11-4-1.62-6.18-.26-1.05-.52-2.13-.76-3.24-1-4.44-1.9-9.19-2.7-14.19-.26-1.58-.49-3.17-.73-4.82-.16-1.1-.33-2.23-.44-3.38s-.31-2.21-.43-3.32c0-.16,0-.35-.07-.51v-.07c0-.26-.07-.5-.09-.76-.12-.94-.21-1.9-.31-2.86,0-.24,0-.5-.07-.73-.18-1.6-.35-3.24-.49-4.89,0-.21,0-.42,0-.63-.09-1.13-.21-2.31-.3-3.48V191c-.75-9.66-1.15-19.88-1.15-30.43a212.67,212.67,0,0,1,7.89-56,7.3,7.3,0,0,0,.57,3.36c0,.07,0,.1.07.14.32.59.63,1.16,1,1.74a.18.18,0,0,1,.07.17,16.09,16.09,0,0,0,4.89,4.16,20.83,20.83,0,0,0,3,1.43c8.69,3.55,20.74,3.06,28.5-1.41a13.94,13.94,0,0,0,4.68-4,7.75,7.75,0,0,0,1.22-2.19,1.23,1.23,0,0,0,.16-.35,7.29,7.29,0,0,0,.35-3.17A212.29,212.29,0,0,1,428.59,160.57Z"/><path class="cls-27" d="M420.64,104.41a7.29,7.29,0,0,1-.35,3.17,1.23,1.23,0,0,1-.16.35,7.75,7.75,0,0,1-1.22,2.19,13.94,13.94,0,0,1-4.68,4c-7.76,4.47-19.81,5-28.5,1.41a20.83,20.83,0,0,1-3-1.43,16.09,16.09,0,0,1-4.89-4.16.18.18,0,0,0-.07-.17c-.33-.58-.64-1.15-1-1.74,0,0-.07-.07-.07-.14a7.3,7.3,0,0,1-.57-3.36c.26-1.1.57-2.18.89-3.24l0,0C386,70.45,398.41,50,398.41,50s12.6,20.68,21.51,51.82C420.17,102.65,420.43,103.52,420.64,104.41Z"/><path class="cls-28" d="M376.16,104.57a7.88,7.88,0,0,1,.89-3.24C376.73,102.39,376.42,103.47,376.16,104.57Z"/><path class="cls-29" d="M420.64,104.41c-.21-.89-.47-1.76-.72-2.63A7.72,7.72,0,0,1,420.64,104.41Z"/><path class="cls-30" d="M425.86,200.8a18.79,18.79,0,0,1-6.13,5.26c-11.8,6.82-31,6.8-42.79,0a20.6,20.6,0,0,1-6.28-5.24l-.4-.73c0,.23.05.49.07.73.1,1,.19,1.92.31,2.86,0,.26.05.5.09.76a24.62,24.62,0,0,0,5,3.69c6.25,3.61,14.47,5.42,22.65,5.42s16.31-1.78,22.51-5.35a28.87,28.87,0,0,0,2.8-1.84l.07,0c.4-.31.78-.64,1.13-.94s.54-.5.8-.73l.28-.28.12-.12.16-1c.09-.73.17-1.48.24-2.23,0-.45.09-.87.14-1.32A7.64,7.64,0,0,1,425.86,200.8Z"/><path class="cls-31" d="M420.9,208.16a28.87,28.87,0,0,0,2.8-1.84A40.07,40.07,0,0,1,400,214c-16.8.26-26.11-6.11-29.26-9.56v-.07a24.62,24.62,0,0,0,5,3.69c6.25,3.61,14.47,5.42,22.65,5.42S414.7,211.73,420.9,208.16Z"/><path class="cls-32" d="M425.7,204.61a7.91,7.91,0,0,1-.8.73C425.18,205.1,425.44,204.84,425.7,204.61Z"/><path class="cls-33" d="M426.35,192.44a19.27,19.27,0,0,1-6.25,5.38c-12,6.93-31.53,6.9-43.56-.07a21.07,21.07,0,0,1-6.37-5.34l-.75-1.36c.09,1.17.21,2.35.3,3.48,0,.42.12.84.19,1.27a25.14,25.14,0,0,0,5.43,4.06c6.34,3.69,14.73,5.52,23.07,5.52s16.57-1.81,22.89-5.45a27.72,27.72,0,0,0,5.75-4.37c.25-1.62.17-3.18.38-4.85A11.69,11.69,0,0,1,426.35,192.44Z"/><path class="cls-34" d="M426.6,196.06c-1,1.13-10.1,9.66-26.52,9.9-17.75.27-27.28-6.69-30.16-10.13a24.79,24.79,0,0,0,5.44,4.08c6.36,3.69,14.75,5.54,23.11,5.54s16.62-1.82,22.95-5.47A23.68,23.68,0,0,0,426.6,196.06Z"/><path class="cls-35" d="M391.93,249.25c.87,6.26,1.69,11.59,2.37,15.8a19,19,0,0,1-5.83-2.05,9.56,9.56,0,0,1-3.07-2.63.11.11,0,0,0,0-.09l-.61-1.11a.11.11,0,0,1-.05-.09,88.35,88.35,0,0,1-6.13-15.3c-.38-1.18-.73-2.4-1.08-3.64v0c-.57-2-1.11-4-1.62-6.18-.26-1.05-.52-2.13-.76-3.24-1-4.44-1.9-9.19-2.7-14.19-.26-1.58-.49-3.17-.73-4.82-.16-1.1-.33-2.23-.44-3.38s-.31-2.21-.43-3.32c0-.16,0-.35-.07-.51v-.07c0-.26-.07-.5-.09-.76-.12-.94-.21-1.9-.31-2.86,0-.24,0-.5-.07-.73-.18-1.6-.35-3.24-.49-4.89,0-.21,0-.42,0-.63-.09-1.13-.21-2.31-.3-3.48V191c-.75-9.66-1.15-19.88-1.15-30.43a212.67,212.67,0,0,1,7.89-56c.26-1.1.57-2.18.89-3.24l0,0C386,70.45,398.41,50,398.41,50c-7.07,19.3-10.92,42.07-12.68,65.61C382,165.27,387.61,218.38,391.93,249.25Z"/><path class="cls-36" d="M435.45,292.62c-.12-.8-1.55.44-1.55.44-3.62-23.78-13.7-38.56-18.92-44.83l-1.67-3.95,1.6-30s.28-.61.71-.71a.76.76,0,0,1,.84.26C437.24,232.11,435.87,256.62,435.45,292.62Z"/><path class="cls-37" d="M433.9,293.06c-3.62-23.78-13.7-38.56-18.92-44.83a37.19,37.19,0,0,0-3.22-3.5l3.15-30.48C435.68,232.55,434.32,257.06,433.9,293.06Z"/><path class="cls-38" d="M362.69,292.62c.12-.8,1.55.44,1.55.44,3.62-23.78,13.7-38.56,18.92-44.83l1.67-3.95-1.6-30s-.28-.61-.7-.71a.77.77,0,0,0-.85.26C360.91,232.11,362.27,256.62,362.69,292.62Z"/><path class="cls-39" d="M364.24,293.06c3.62-23.78,13.7-38.56,18.92-44.83a37.19,37.19,0,0,1,3.22-3.5l-3.15-30.48C362.46,232.55,363.82,257.06,364.24,293.06Z"/><ellipse class="cls-40" cx="398.45" cy="168.8" rx="12.63" ry="16.65"/><path class="cls-41" d="M409.74,168.8c0,8.22-5.05,14.89-11.28,14.89a9.13,9.13,0,0,1-6-2.28,7.2,7.2,0,0,1-.89-.79,10.28,10.28,0,0,1-1.55-1.91,12.73,12.73,0,0,1-1.32-2.37,18.22,18.22,0,0,1-1.57-7.54c0-8.21,5-14.88,11.3-14.88a9.45,9.45,0,0,1,5.69,2.07,11.13,11.13,0,0,1,1.71,1.6,6.15,6.15,0,0,1,.78,1A17.41,17.41,0,0,1,409.74,168.8Z"/><path class="cls-42" d="M404.15,156l-14.1,22.72a12.73,12.73,0,0,1-1.32-2.37l13.37-21.6A8.54,8.54,0,0,1,404.15,156Z"/><path class="cls-42" d="M406.64,158.6l-14.15,22.81a7.2,7.2,0,0,1-.89-.79l14.26-23A6.15,6.15,0,0,1,406.64,158.6Z"/><ellipse class="cls-43" cx="398.26" cy="137.58" rx="6.28" ry="8.28"/><path class="cls-44" d="M403.52,137.57c0,3.84-2.35,7-5.25,7a4.26,4.26,0,0,1-2.78-1.07,3.59,3.59,0,0,1-.42-.37,4.83,4.83,0,0,1-.72-.89,5.34,5.34,0,0,1-.61-1.1,8.37,8.37,0,0,1-.74-3.52c0-3.82,2.36-6.93,5.27-6.93a4.45,4.45,0,0,1,2.65,1,5,5,0,0,1,.8.74,3.43,3.43,0,0,1,.36.47A8.11,8.11,0,0,1,403.52,137.57Z"/><path class="cls-42" d="M400.92,131.61l-6.57,10.58a5.34,5.34,0,0,1-.61-1.1L400,131A3.91,3.91,0,0,1,400.92,131.61Z"/><path class="cls-42" d="M402.08,132.82l-6.59,10.63a3.59,3.59,0,0,1-.42-.37l6.65-10.73A3.43,3.43,0,0,1,402.08,132.82Z"/><rect class="cls-45" x="442.45" y="124.94" width="3.06" height="87.57" rx="1.53"/><rect class="cls-46" x="352.08" y="104.57" width="3.05" height="47.58" rx="1.52"/><rect class="cls-47" x="343.07" y="144.52" width="2.08" height="99.26" rx="1.04"/><rect class="cls-48" x="355.12" y="195.61" width="2.57" height="33.03" rx="1.29"/><rect class="cls-49" x="382.09" y="233.71" width="5.07" height="28.41" rx="2.53"/><rect class="cls-50" x="435.64" y="185.45" width="3.22" height="37" rx="1.61"/><rect class="cls-51" x="404.15" y="88.72" width="2.49" height="23.97" rx="1.25"/><path class="cls-52" d="M676.84,250.25c-.14,1.17-1.06,2.36-2.71,3.32L613.3,288.69c-3.31,1.91-8.31,2.11-11.18.46l-62.88-36.31A3.31,3.31,0,0,1,537.3,250c0-1.17,0-13.23,0-14.79a3.35,3.35,0,0,0,1.94,2.69l62.88,36.31c2.87,1.66,7.87,1.45,11.18-.46l60.83-35.12c1.67-1,2.59-2.19,2.72-3.37C676.87,237.81,677,249.21,676.84,250.25Z"/><path class="cls-53" d="M680.57,244.51c-.15,1.23-1.12,2.5-2.86,3.5l-64.08,37c-3.48,2-8.75,2.23-11.77.48l-66.25-38.24a3.47,3.47,0,0,1-2-3c0-1.23,0-42.56,0-44.21a3.52,3.52,0,0,0,2,2.84l66.25,38.25c3,1.75,8.29,1.53,11.77-.49l64.08-37c1.76-1,2.73-2.31,2.87-3.55C680.6,202.79,680.7,243.42,680.57,244.51Z"/><path class="cls-54" d="M680.58,200.08c-.14,1.24-1.11,2.53-2.87,3.55l-64.08,37c-3.48,2-8.75,2.24-11.77.49l-66.25-38.25a3.52,3.52,0,0,1-2-2.84.49.49,0,0,1,0-.17c0-1.32,1-2.7,2.88-3.78l64.07-37c3.49-2,8.76-2.24,11.77-.49l66.25,38.25A3.4,3.4,0,0,1,680.58,200.08Z"/><path class="cls-55" d="M665.41,200a4,4,0,0,1-2.28,2.82l-.81.47-3.37,2-46.67,26.94c-2.77,1.6-6.95,1.77-9.34.38L555.22,205l-3.38-1.95-1.48-.85a2.79,2.79,0,0,1-1.61-2.25.33.33,0,0,1,0-.14c0-1,.8-2.14,2.28-3l50.85-29.36c2.77-1.6,7-1.77,9.35-.38l52.57,30.35A2.68,2.68,0,0,1,665.41,200Z"/><path class="cls-56" d="M662.32,203.32l-3.37,2-46.67,26.94c-2.77,1.6-6.95,1.77-9.34.38L555.22,205l-3.38-1.95,50-28.89c2.77-1.6,7-1.77,9.35-.38Z"/><path class="cls-57" d="M560.75,246a2.3,2.3,0,0,1-1-1.8V227.1c0-3.78,2.68-5.31,6-3.4a13.16,13.16,0,0,1,6,10.3v1.73c0,.66-.47.92-1,.59a2.31,2.31,0,0,1-1-1.8V232.8a8.56,8.56,0,0,0-3.89-6.71c-2.14-1.24-3.89-.25-3.89,2.21v17.13C561.79,246.09,561.33,246.36,560.75,246Z"/><path class="cls-58" d="M572.53,240.24l-13.7-7.91c-1.45-.84-2.64-.16-2.64,1.51v15a5.84,5.84,0,0,0,2.64,4.57l13.7,7.91c1.47.85,2.65.17,2.65-1.51v-15A5.81,5.81,0,0,0,572.53,240.24Zm-5.46,7.18v3.33c0,.81-.57,1.14-1.28.73a2.79,2.79,0,0,1-1.26-2.19V246a5.66,5.66,0,0,1-1.34-3.37c0-1.1.54-1.76,1.34-1.81a2.16,2.16,0,0,1,1.26.35,4.67,4.67,0,0,1,1.28,1.13,5.56,5.56,0,0,1,1.32,3.33C568.39,246.7,567.86,247.36,567.07,247.42Z"/><polygon class="cls-59" points="678.77 158.92 681.51 115.51 642.1 96.5 630.44 103.75 654.38 117.57 621.31 136.42 594 100.31 565.83 116.38 554.16 123.63 577.51 136.53 596.23 125.86 623.54 161.97 666.07 137.72 667.1 166.17 678.77 158.92"/><polygon class="cls-60" points="667.1 166.17 669.85 122.76 630.44 103.75 642.72 124.82 609.65 143.67 582.33 107.57 554.16 123.63 565.85 143.78 584.56 133.12 611.87 169.22 654.4 144.98 667.1 166.17"/><path class="cls-61" d="M589.87,194c-1,.58-4.3,2.33-4.3,2.33s0,2.27,0,3.7c0,2.18,1.47,4.37,4.36,6,5.79,3.34,15.15,3.36,20.91,0,2.81-1.63,4.24-3.76,4.29-5.9s0-3.74,0-3.74S595.62,190.66,589.87,194Z"/><ellipse class="cls-62" cx="600.35" cy="196.46" rx="8.53" ry="14.78" transform="translate(400.64 795.73) rotate(-89.69)"/><path class="cls-63" d="M591.92,191.59c4.63-2.67,12.16-2.66,16.81,0,2.77,1.6,3.9,3.79,3.38,5.86a6.46,6.46,0,0,1-3.33,3.84c-4.63,2.68-12.15,2.66-16.81,0-2.31-1.34-3.48-3.08-3.51-4.82S589.59,192.94,591.92,191.59Z"/><path class="cls-64" d="M591.79,192.64c4.63-2.68,12.16-2.66,16.82,0,2.31,1.33,3.48,3.07,3.5,4.81a6.46,6.46,0,0,1-3.33,3.84c-4.63,2.68-12.15,2.66-16.81,0-2.31-1.34-3.48-3.08-3.51-4.82A6.47,6.47,0,0,1,591.79,192.64Z"/><path class="cls-22" d="M605.77,193.53c1.58,1.09,1.88,2.36.29,3.28l-1.73-1c.65-.44.77-1,.12-1.51l-3.1,1.79c1.06,1,2.23,2.15.24,3.3a6.48,6.48,0,0,1-5.8-.09l-1.15.66-.92-.53,1.14-.66c-1.49-1-1.71-2.17-.25-3.17l1.73,1a.82.82,0,0,0-.12,1.38l3-1.76c-1.08-1-2.25-2.12-.26-3.27a6.61,6.61,0,0,1,5.83.06l1.15-.67.93.53ZM600,196.89l-2.85,1.65a3.05,3.05,0,0,0,2.76,0C600.68,198,600.48,197.48,600,196.89Zm.71-1.47,2.87-1.65a3.27,3.27,0,0,0-2.8.07C599.92,194.31,600.14,194.84,600.66,195.42Z"/><path class="cls-65" d="M589.87,188.68c-1,.58-4.3,2.33-4.3,2.33s0,2.28,0,3.7c0,2.18,1.47,4.37,4.36,6,5.79,3.35,15.15,3.36,20.91,0,2.81-1.63,4.24-3.75,4.29-5.89s0-3.74,0-3.74S595.62,185.36,589.87,188.68Z"/><ellipse class="cls-66" cx="600.35" cy="191.16" rx="8.53" ry="14.78" transform="translate(405.93 790.47) rotate(-89.69)"/><path class="cls-67" d="M591.92,186.3c4.63-2.68,12.16-2.66,16.81,0,2.77,1.6,3.9,3.79,3.38,5.86a6.48,6.48,0,0,1-3.33,3.85c-4.63,2.67-12.15,2.66-16.81,0-2.31-1.33-3.48-3.08-3.51-4.82S589.59,187.64,591.92,186.3Z"/><path class="cls-68" d="M591.79,187.34c4.63-2.67,12.16-2.66,16.82,0,2.31,1.33,3.48,3.07,3.5,4.81a6.48,6.48,0,0,1-3.33,3.85c-4.63,2.67-12.15,2.66-16.81,0-2.31-1.33-3.48-3.08-3.51-4.82A6.5,6.5,0,0,1,591.79,187.34Z"/><path class="cls-22" d="M605.77,188.24c1.58,1.09,1.88,2.35.29,3.27l-1.73-1c.65-.44.77-1,.12-1.51l-3.1,1.79c1.06,1,2.23,2.16.24,3.3a6.45,6.45,0,0,1-5.8-.09l-1.15.67-.92-.53,1.14-.66c-1.49-1-1.71-2.18-.25-3.17l1.73,1a.82.82,0,0,0-.12,1.38l3-1.76c-1.08-1-2.25-2.13-.26-3.28a6.67,6.67,0,0,1,5.83.06l1.15-.66.93.53ZM600,191.6l-2.85,1.64a3,3,0,0,0,2.76-.05C600.68,192.72,600.48,192.18,600,191.6Zm.71-1.48,2.87-1.65a3.23,3.23,0,0,0-2.8.08C599.92,189,600.14,189.54,600.66,190.12Z"/><path class="cls-69" d="M621.87,199.24c-1,.58-4.3,2.33-4.3,2.33s0,2.28,0,3.7c0,2.18,1.47,4.37,4.36,6,5.79,3.35,15.15,3.36,20.91,0,2.82-1.63,4.25-3.75,4.29-5.89s0-3.74,0-3.74S627.62,195.92,621.87,199.24Z"/><ellipse class="cls-70" cx="632.35" cy="201.72" rx="8.53" ry="14.78" transform="translate(427.2 832.97) rotate(-89.69)"/><path class="cls-71" d="M623.92,196.85c4.63-2.67,12.16-2.65,16.81,0,2.77,1.6,3.9,3.79,3.39,5.86a6.51,6.51,0,0,1-3.33,3.85c-4.64,2.67-12.16,2.66-16.82,0-2.31-1.33-3.48-3.08-3.5-4.82S621.59,198.2,623.92,196.85Z"/><path class="cls-72" d="M623.79,197.9c4.64-2.67,12.16-2.66,16.82,0,2.31,1.33,3.48,3.07,3.51,4.81a6.51,6.51,0,0,1-3.33,3.85c-4.64,2.67-12.16,2.66-16.82,0-2.31-1.33-3.48-3.08-3.5-4.82A6.51,6.51,0,0,1,623.79,197.9Z"/><path class="cls-22" d="M637.78,198.8c1.57,1.09,1.87,2.35.28,3.27l-1.73-1c.65-.44.77-1,.12-1.51l-3.1,1.79c1.07,1,2.23,2.15.24,3.3a6.42,6.42,0,0,1-5.79-.09l-1.16.67-.92-.54,1.14-.65c-1.49-1-1.71-2.18-.24-3.17l1.73,1a.81.81,0,0,0-.12,1.38l3-1.76c-1.08-1-2.24-2.13-.26-3.28a6.64,6.64,0,0,1,5.83.06l1.16-.66.92.53ZM632,202.16l-2.84,1.64a3,3,0,0,0,2.75-.05C632.68,203.28,632.48,202.74,632,202.16Zm.72-1.48,2.86-1.65a3.24,3.24,0,0,0-2.8.08C631.93,199.57,632.14,200.1,632.67,200.68Z"/><path class="cls-73" d="M621.87,194c-1,.58-4.3,2.33-4.3,2.33s0,2.27,0,3.7c0,2.18,1.47,4.37,4.36,6,5.79,3.34,15.15,3.36,20.91,0,2.82-1.63,4.25-3.76,4.29-5.9s0-3.74,0-3.74S627.62,190.63,621.87,194Z"/><ellipse class="cls-74" cx="632.35" cy="196.43" rx="8.53" ry="14.78" transform="translate(432.5 827.71) rotate(-89.69)"/><path class="cls-75" d="M623.92,191.56c4.63-2.67,12.16-2.66,16.81,0,2.77,1.6,3.9,3.79,3.39,5.86a6.54,6.54,0,0,1-3.33,3.85c-4.64,2.67-12.16,2.65-16.82,0-2.31-1.34-3.48-3.08-3.5-4.82S621.59,192.91,623.92,191.56Z"/><path class="cls-76" d="M623.79,192.61c4.64-2.68,12.16-2.66,16.82,0,2.31,1.33,3.48,3.07,3.51,4.81a6.54,6.54,0,0,1-3.33,3.85c-4.64,2.67-12.16,2.65-16.82,0-2.31-1.34-3.48-3.08-3.5-4.82A6.48,6.48,0,0,1,623.79,192.61Z"/><path class="cls-22" d="M637.78,193.5c1.57,1.09,1.87,2.36.28,3.28l-1.73-1c.65-.44.77-1,.12-1.51l-3.1,1.79c1.07,1,2.23,2.15.24,3.3a6.46,6.46,0,0,1-5.79-.09l-1.16.66-.92-.53,1.14-.66c-1.49-1-1.71-2.17-.24-3.17l1.73,1a.81.81,0,0,0-.12,1.38l3-1.76c-1.08-1-2.24-2.12-.26-3.27a6.61,6.61,0,0,1,5.83.06l1.16-.67.92.53ZM632,196.87l-2.84,1.64a3,3,0,0,0,2.75,0C632.68,198,632.48,197.45,632,196.87Zm.72-1.48,2.86-1.65a3.27,3.27,0,0,0-2.8.07C631.93,194.28,632.14,194.81,632.67,195.39Z"/><path class="cls-77" d="M621.87,188.66c-1,.57-4.3,2.33-4.3,2.33s0,2.27,0,3.69c0,2.19,1.47,4.37,4.36,6,5.79,3.35,15.15,3.36,20.91,0,2.82-1.62,4.25-3.75,4.29-5.89s0-3.74,0-3.74S627.62,185.33,621.87,188.66Z"/><ellipse class="cls-78" cx="632.35" cy="191.13" rx="8.53" ry="14.78" transform="translate(437.79 822.44) rotate(-89.69)"/><path class="cls-79" d="M623.92,186.27c4.63-2.67,12.16-2.66,16.81,0,2.77,1.6,3.9,3.79,3.39,5.87a6.52,6.52,0,0,1-3.33,3.84c-4.64,2.68-12.16,2.66-16.82,0-2.31-1.33-3.48-3.07-3.5-4.82S621.59,187.61,623.92,186.27Z"/><path class="cls-80" d="M623.79,187.31c4.64-2.67,12.16-2.66,16.82,0,2.31,1.34,3.48,3.07,3.51,4.82a6.52,6.52,0,0,1-3.33,3.84c-4.64,2.68-12.16,2.66-16.82,0-2.31-1.33-3.48-3.07-3.5-4.82A6.51,6.51,0,0,1,623.79,187.31Z"/><path class="cls-22" d="M637.78,188.21c1.57,1.09,1.87,2.35.28,3.27l-1.73-1c.65-.44.77-1,.12-1.51l-3.1,1.79c1.07,1,2.23,2.15.24,3.29a6.39,6.39,0,0,1-5.79-.09l-1.16.67-.92-.53,1.14-.66c-1.49-1-1.71-2.18-.24-3.17l1.73,1a.81.81,0,0,0-.12,1.38l3-1.76c-1.08-1-2.24-2.13-.26-3.27a6.61,6.61,0,0,1,5.83.06L638,187l.92.53ZM632,191.57l-2.84,1.65a3,3,0,0,0,2.75-.06C632.68,192.69,632.48,192.15,632,191.57Zm.72-1.48,2.86-1.65a3.27,3.27,0,0,0-2.8.08C631.93,189,632.14,189.51,632.67,190.09Z"/><path class="cls-81" d="M621.87,183.36c-1,.58-4.3,2.33-4.3,2.33s0,2.28,0,3.7c0,2.18,1.47,4.37,4.36,6,5.79,3.34,15.15,3.36,20.91,0,2.82-1.63,4.25-3.75,4.29-5.89s0-3.74,0-3.74S627.62,180,621.87,183.36Z"/><ellipse class="cls-82" cx="632.35" cy="185.84" rx="8.53" ry="14.78" transform="matrix(0.01, -1, 1, 0.01, 443.09, 817.18)"/><path class="cls-83" d="M623.92,181c4.63-2.67,12.16-2.66,16.81,0,2.77,1.6,3.9,3.79,3.39,5.86a6.51,6.51,0,0,1-3.33,3.85c-4.64,2.67-12.16,2.66-16.82,0-2.31-1.33-3.48-3.08-3.5-4.82S621.59,182.32,623.92,181Z"/><path class="cls-84" d="M623.79,182c4.64-2.67,12.16-2.66,16.82,0,2.31,1.33,3.48,3.07,3.51,4.81a6.51,6.51,0,0,1-3.33,3.85c-4.64,2.67-12.16,2.66-16.82,0-2.31-1.33-3.48-3.08-3.5-4.82A6.51,6.51,0,0,1,623.79,182Z"/><path class="cls-22" d="M637.78,182.92c1.57,1.08,1.87,2.35.28,3.27l-1.73-1c.65-.44.77-1,.12-1.51l-3.1,1.79c1.07,1,2.23,2.15.24,3.3a6.46,6.46,0,0,1-5.79-.09l-1.16.67-.92-.54,1.14-.66c-1.49-1-1.71-2.17-.24-3.16l1.73,1a.8.8,0,0,0-.12,1.37l3-1.75c-1.08-1-2.24-2.13-.26-3.28a6.61,6.61,0,0,1,5.83.06l1.16-.67.92.54ZM632,186.28l-2.84,1.64a3,3,0,0,0,2.75,0C632.68,187.4,632.48,186.86,632,186.28Zm.72-1.48,2.86-1.65a3.24,3.24,0,0,0-2.8.08C631.93,183.69,632.14,184.22,632.67,184.8Z"/><path class="cls-85" d="M621.87,178.07c-1,.58-4.3,2.33-4.3,2.33s0,2.27,0,3.69c0,2.19,1.47,4.37,4.36,6,5.79,3.34,15.15,3.36,20.91,0,2.82-1.62,4.25-3.75,4.29-5.89s0-3.74,0-3.74S627.62,174.75,621.87,178.07Z"/><ellipse class="cls-86" cx="632.35" cy="180.55" rx="8.53" ry="14.78" transform="translate(448.38 811.91) rotate(-89.69)"/><path class="cls-87" d="M623.92,175.68c4.63-2.67,12.16-2.66,16.81,0,2.77,1.6,3.9,3.79,3.39,5.86a6.5,6.5,0,0,1-3.33,3.84c-4.64,2.68-12.16,2.66-16.82,0-2.31-1.33-3.48-3.07-3.5-4.82S621.59,177,623.92,175.68Z"/><path class="cls-88" d="M623.79,176.73c4.64-2.68,12.16-2.66,16.82,0,2.31,1.34,3.48,3.08,3.51,4.82a6.5,6.5,0,0,1-3.33,3.84c-4.64,2.68-12.16,2.66-16.82,0-2.31-1.33-3.48-3.07-3.5-4.82A6.47,6.47,0,0,1,623.79,176.73Z"/><path class="cls-22" d="M637.78,177.62c1.57,1.09,1.87,2.36.28,3.28l-1.73-1c.65-.44.77-1,.12-1.51l-3.1,1.79c1.07,1,2.23,2.15.24,3.3a6.43,6.43,0,0,1-5.79-.1l-1.16.67-.92-.53,1.14-.66c-1.49-1-1.71-2.17-.24-3.17l1.73,1a.81.81,0,0,0-.12,1.38l3-1.76c-1.08-1-2.24-2.12-.26-3.27a6.61,6.61,0,0,1,5.83.06l1.16-.67.92.53ZM632,181l-2.84,1.65a3,3,0,0,0,2.75,0C632.68,182.1,632.48,181.56,632,181Zm.72-1.47,2.86-1.66a3.27,3.27,0,0,0-2.8.08C631.93,178.4,632.14,178.93,632.67,179.51Z"/><path class="cls-89" d="M564.89,197.84c-.73.9-3.17,3.72-3.17,3.72s.8,2.12,1.32,3.45c.79,2,2.94,3.55,6.24,4.07,6.6,1,15.35-2.29,19.53-7.46,2-2.53,2.62-5,1.89-7s-1.34-3.49-1.34-3.49S569.07,192.68,564.89,197.84Z"/><ellipse class="cls-90" cx="575.57" cy="196.39" rx="14.78" ry="8.53" transform="translate(-32.26 216.2) rotate(-20.71)"/><path class="cls-91" d="M566,194.87c3.36-4.15,10.39-6.84,15.7-6,3.16.5,5,2.14,5.26,4.26a6.49,6.49,0,0,1-1.73,4.78c-3.36,4.16-10.39,6.84-15.7,6-2.64-.42-4.36-1.63-5-3.25S564.26,197,566,194.87Z"/><path class="cls-92" d="M566.21,195.9c3.36-4.16,10.39-6.84,15.7-6,2.64.42,4.35,1.62,5,3.24a6.49,6.49,0,0,1-1.73,4.78c-3.36,4.16-10.39,6.84-15.7,6-2.64-.42-4.36-1.63-5-3.25A6.45,6.45,0,0,1,566.21,195.9Z"/><path class="cls-22" d="M579.58,191.72c1.86.45,2.6,1.52,1.44,2.95l-2-.31c.44-.64.37-1.18-.43-1.45l-2.26,2.78c1.37.57,2.86,1.21,1.41,3a6.42,6.42,0,0,1-5.44,2l-.84,1-1-.17.83-1c-1.76-.42-2.38-1.41-1.37-2.87l2,.32a.81.81,0,0,0,.38,1.33l2.21-2.74c-1.37-.56-2.86-1.18-1.41-3a6.57,6.57,0,0,1,5.46-2l.84-1,1,.16ZM575.35,197l-2.07,2.55a3,3,0,0,0,2.56-1C576.43,197.73,576.05,197.3,575.35,197Zm.14-1.64,2.07-2.57a3.27,3.27,0,0,0-2.58,1.08C574.4,194.54,574.79,195,575.49,195.31Z"/><path class="cls-93" d="M665.41,199.82a4,4,0,0,1-2.28,2.82l-.81.47L659,205.06,612.28,232c-2.77,1.6-6.95,1.77-9.34.38l-47.72-27.55-3.38-2-1.48-.85a2.79,2.79,0,0,1-1.61-2.25.33.33,0,0,1,0-.14c0-1-31.85-82.21-31.85-82.21h180S665.51,198.86,665.41,199.82Z"/><path class="cls-94" d="M254.74,505.5a4.91,4.91,0,0,1-2.72,3.32L191.2,543.94c-3.31,1.91-8.32,2.11-11.18.46l-62.89-36.31a3.28,3.28,0,0,1-1.93-2.86c0-1.17,0-13.23,0-14.79a3.36,3.36,0,0,0,1.93,2.69L180,529.44c2.86,1.66,7.87,1.45,11.18-.46L252,493.86c1.68-1,2.6-2.19,2.73-3.37C254.77,493.06,254.86,504.46,254.74,505.5Z"/><path class="cls-95" d="M258.46,499.76c-.15,1.23-1.12,2.5-2.86,3.5l-64.07,37c-3.49,2-8.76,2.23-11.78.48L113.51,502.5a3.47,3.47,0,0,1-2-3c0-1.23,0-42.56,0-44.21a3.51,3.51,0,0,0,2,2.84l66.24,38.25c3,1.75,8.29,1.53,11.78-.49l64.07-37c1.77-1,2.74-2.31,2.87-3.55C258.49,458,258.6,498.67,258.46,499.76Z"/><path class="cls-96" d="M258.47,455.33c-.13,1.24-1.1,2.53-2.87,3.55l-64.07,37c-3.49,2-8.76,2.24-11.78.49l-66.24-38.25a3.51,3.51,0,0,1-2-2.84v-.17c0-1.32,1-2.7,2.88-3.78l64.08-37c3.48-2,8.75-2.24,11.77-.49l66.25,38.25A3.39,3.39,0,0,1,258.47,455.33Z"/><path class="cls-97" d="M243.3,455.28A4,4,0,0,1,241,458.1l-.81.47-3.37,1.95-46.67,26.94c-2.77,1.6-6.95,1.77-9.34.38l-47.72-27.55-3.38-2-1.48-.85a2.79,2.79,0,0,1-1.61-2.25.33.33,0,0,1,0-.14c0-1.05.8-2.14,2.28-3l50.85-29.36c2.77-1.6,6.95-1.77,9.35-.38l52.57,30.35A2.68,2.68,0,0,1,243.3,455.28Z"/><path class="cls-98" d="M240.21,458.57l-3.37,1.95-46.67,26.94c-2.77,1.6-6.95,1.77-9.34.38l-47.72-27.55-3.38-2,50-28.89c2.77-1.6,6.95-1.77,9.35-.38Z"/><path class="cls-99" d="M138.64,501.28a2.33,2.33,0,0,1-1-1.8V482.35c0-3.78,2.68-5.31,6-3.4a13.18,13.18,0,0,1,6,10.3V491c0,.66-.47.92-1,.59a2.28,2.28,0,0,1-1-1.8v-1.72a8.57,8.57,0,0,0-3.89-6.71c-2.15-1.24-3.89-.25-3.89,2.21v17.13C139.69,501.34,139.22,501.61,138.64,501.28Z"/><path class="cls-100" d="M150.42,495.49l-13.69-7.91c-1.46-.84-2.65-.16-2.65,1.51v15a5.82,5.82,0,0,0,2.65,4.57l13.69,7.91c1.47.85,2.65.17,2.65-1.51v-15A5.81,5.81,0,0,0,150.42,495.49ZM145,502.67V506c0,.81-.56,1.14-1.27.73a2.8,2.8,0,0,1-1.27-2.19v-3.33a5.64,5.64,0,0,1-1.33-3.37c0-1.1.53-1.76,1.33-1.81a2.19,2.19,0,0,1,1.27.35,4.79,4.79,0,0,1,1.27,1.13,5.56,5.56,0,0,1,1.32,3.33C146.28,502,145.75,502.61,145,502.67Z"/><g id="Gear"><g id="Settings"><path class="cls-101" d="M188,463.76a.35.35,0,0,0,.19-.41c0-.17-.15-3.91-.15-3.91a8.12,8.12,0,0,1,3.16-.52c.61,0,1.13-.22,1.2-.52a5.07,5.07,0,0,0,.12-1.64c0-.25,0-4.72,0-4.72s-5.16,2.88-5.88,2-.26-2,1.2-2.62c.26-.12.39-.28.39-.44v-4.84l-4,1.81a7,7,0,0,1-1.13,1,8.18,8.18,0,0,1-5.18.56c-1.71-.36-2.93-1.34-2.85-2.27,0-.31-.42-.58-1-.62a42,42,0,0,0-4.76,0c-.62,0-1.07.3-1,.61.11,1-1,1.91-2.85,2.28a8.54,8.54,0,0,1-5.22-.62L155,446s0,4.68,0,4.79.16.43.45.58c1.32.63,1.77,1.66,1,2.56s-5.82-1.63-5.82-1.63,0,4.19,0,4.51a4.92,4.92,0,0,0,.12,1.43c.07.31.6.54,1.22.53a8.36,8.36,0,0,1,3,.47s0,3.9,0,4.07a.51.51,0,0,0,.26.34c.5.32,1,.63,1.61.92s1.11.53,1.72.77a2.05,2.05,0,0,0,1.58-.05,8.08,8.08,0,0,1,5.17-.56c1.72.36,2.93,1.34,2.85,2.27,0,.31.42.57,1,.61a39.78,39.78,0,0,0,4.76,0c.61,0,1.06-.3,1-.61-.11-1,1-1.9,2.85-2.27a8.34,8.34,0,0,1,5,.52l.18.09a2,2,0,0,0,1.59.08A20.66,20.66,0,0,0,188,463.76Zm-21.31-4.11c-2.73-1.38-2.75-3.61,0-5a12.32,12.32,0,0,1,9.87,0c2.73,1.38,2.74,3.62,0,5A12.32,12.32,0,0,1,166.68,459.65Z"/></g><g id="Settings-2" data-name="Settings"><path class="cls-102" d="M192.4,451.2c-.07-.31-.6-.54-1.22-.53-1.86.05-3.8-.57-4.52-1.45s-.27-2,1.19-2.63c.46-.2.52-.56.13-.8a20.71,20.71,0,0,0-3.33-1.69,2.06,2.06,0,0,0-1.58.06,8.17,8.17,0,0,1-5.18.56c-1.7-.37-2.92-1.34-2.84-2.28,0-.3-.42-.57-1-.61a39.8,39.8,0,0,0-4.76,0c-.62,0-1.07.3-1,.61.1,1-1.05,1.91-2.86,2.28a8.47,8.47,0,0,1-5.22-.63,2,2,0,0,0-1.58-.07,21.49,21.49,0,0,0-3.36,1.69c-.37.24-.18.65.25.86,1.32.64,1.77,1.67,1,2.56s-2.54,1.47-4.48,1.43c-.6,0-1.13.21-1.2.51a5.46,5.46,0,0,0,0,2.38c.07.31.6.54,1.22.52,1.86,0,3.81.58,4.53,1.45s.26,2-1.2,2.63c-.46.21-.52.57-.13.81s1,.62,1.61.91,1.12.53,1.72.78a2.06,2.06,0,0,0,1.58-.06,8.16,8.16,0,0,1,5.17-.56c1.72.37,2.93,1.35,2.85,2.28,0,.3.42.57,1,.61a42,42,0,0,0,4.76,0c.62,0,1.07-.3,1-.61-.1-1,1-1.91,2.85-2.28a8.35,8.35,0,0,1,5,.52l.18.1a2.07,2.07,0,0,0,1.59.08,20.67,20.67,0,0,0,3.36-1.7c.37-.23.19-.63-.22-.84-1.37-.69-1.78-1.7-1.06-2.58s2.54-1.46,4.48-1.42c.61,0,1.13-.21,1.2-.52A5.13,5.13,0,0,0,192.4,451.2Zm-25.72,3.63c-2.73-1.38-2.75-3.62,0-5a12.32,12.32,0,0,1,9.87,0c2.73,1.38,2.74,3.61,0,5A12.37,12.37,0,0,1,166.68,454.83Z"/></g><path class="cls-103" d="M177.1,449.6a13.79,13.79,0,0,0-11,0c-3,1.54-3,4,0,5.58a13.79,13.79,0,0,0,11,0C180.18,453.64,180.16,451.14,177.1,449.6Zm-.55,5.24a12.37,12.37,0,0,1-9.87,0c-2.73-1.38-2.75-3.62,0-5a12.32,12.32,0,0,1,9.87,0C179.25,451.24,179.26,453.47,176.55,454.84Z"/><g id="Settings-3" data-name="Settings"><path class="cls-104" d="M217.81,464.6a.28.28,0,0,0,.14-.31c0-.13-.11-3-.11-3a6.18,6.18,0,0,1,2.41-.41c.47,0,.87-.16.92-.39a4.13,4.13,0,0,0,.1-1.26c0-.18,0-3.6,0-3.6s-3.95,2.2-4.49,1.53-.21-1.51.91-2c.2-.09.3-.21.3-.33v-3.71l-3.09,1.39a5.2,5.2,0,0,1-.86.78,6.21,6.21,0,0,1-4,.43c-1.31-.27-2.24-1-2.18-1.74,0-.23-.32-.43-.78-.46a29.48,29.48,0,0,0-3.64,0c-.47,0-.82.23-.79.47.08.75-.8,1.45-2.18,1.74a6.53,6.53,0,0,1-4-.48l-3.93-2.2s0,3.58,0,3.66a.53.53,0,0,0,.34.44c1,.49,1.36,1.27.79,2s-4.45-1.24-4.45-1.24,0,3.2,0,3.44a4.06,4.06,0,0,0,.09,1.1c0,.24.46.41.93.4a6.34,6.34,0,0,1,2.26.36s0,3,0,3.12a.4.4,0,0,0,.2.26q.57.36,1.23.69c.42.21.85.41,1.32.6a1.55,1.55,0,0,0,1.2,0,6.21,6.21,0,0,1,4-.43c1.32.28,2.24,1,2.18,1.74,0,.23.32.43.78.47a31.58,31.58,0,0,0,3.64,0c.47,0,.82-.23.79-.47-.07-.75.8-1.45,2.18-1.74a6.48,6.48,0,0,1,3.85.4l.14.08a1.6,1.6,0,0,0,1.22.05A15.8,15.8,0,0,0,217.81,464.6Zm-16.3-3.14c-2.09-1.06-2.1-2.77,0-3.81a9.4,9.4,0,0,1,7.55,0c2.09,1,2.1,2.76,0,3.81A9.44,9.44,0,0,1,201.51,461.46Z"/></g><g id="Settings-4" data-name="Settings"><path class="cls-105" d="M221.18,455c-.05-.23-.46-.41-.93-.4a4.78,4.78,0,0,1-3.46-1.11c-.57-.7-.2-1.51.91-2,.35-.16.4-.43.1-.61a16,16,0,0,0-2.55-1.3,1.56,1.56,0,0,0-1.2.05,6.28,6.28,0,0,1-4,.43c-1.31-.28-2.24-1-2.18-1.74,0-.24-.32-.44-.78-.47a29.48,29.48,0,0,0-3.64,0c-.47,0-.82.23-.79.47.07.76-.8,1.46-2.18,1.74a6.53,6.53,0,0,1-4-.48,1.5,1.5,0,0,0-1.21-.05,16.22,16.22,0,0,0-2.57,1.29c-.28.18-.13.49.19.66,1,.48,1.36,1.27.79,2a4.56,4.56,0,0,1-3.43,1.09c-.46,0-.86.16-.91.39a4.14,4.14,0,0,0,0,1.82c0,.24.46.41.93.4a4.81,4.81,0,0,1,3.46,1.11c.58.7.21,1.51-.91,2-.35.16-.4.43-.1.62s.79.47,1.23.7.86.4,1.32.59a1.56,1.56,0,0,0,1.2,0,6.21,6.21,0,0,1,4-.43c1.32.28,2.24,1,2.18,1.74,0,.23.32.43.78.46a29.48,29.48,0,0,0,3.64,0c.47,0,.82-.23.79-.46-.07-.76.8-1.46,2.18-1.75a6.33,6.33,0,0,1,3.85.4l.14.08a1.6,1.6,0,0,0,1.22.05,15,15,0,0,0,2.57-1.29c.28-.18.15-.49-.17-.65-1-.52-1.36-1.3-.81-2a4.58,4.58,0,0,1,3.43-1.08c.46,0,.86-.17.91-.4A4.14,4.14,0,0,0,221.18,455Zm-19.67,2.78c-2.09-1.06-2.1-2.77,0-3.82a9.44,9.44,0,0,1,7.55,0c2.09,1,2.1,2.76,0,3.81A9.44,9.44,0,0,1,201.51,457.77Z"/></g><path class="cls-106" d="M209.48,453.77a10.5,10.5,0,0,0-8.44,0c-2.32,1.17-2.31,3.08,0,4.26a10.54,10.54,0,0,0,8.44,0C211.83,456.86,211.82,455,209.48,453.77Zm-.42,4a9.44,9.44,0,0,1-7.55,0c-2.09-1.06-2.1-2.77,0-3.82a9.44,9.44,0,0,1,7.55,0C211.12,455,211.13,456.73,209.06,457.78Z"/></g><path class="cls-107" d="M243.3,455.28A4,4,0,0,1,241,458.1l-.81.47-3.37,1.95-46.67,26.94c-2.77,1.6-6.95,1.77-9.34.38l-47.72-27.55-3.38-2-1.48-.85a2.79,2.79,0,0,1-1.61-2.25.33.33,0,0,1,0-.14c0-1.05-31.85-82.21-31.85-82.21h180S243.4,454.32,243.3,455.28Z"/><path class="cls-108" d="M127.22,410c.33,5.82,4.34,11.57,12,16,16.11,9.3,42.31,9.26,58.52-.11,8-4.64,12.12-10.69,12.22-16.75s-3.9-12.34-12-17c-16.11-9.3-42.32-9.25-58.53.11-7.81,4.51-11.86,10.35-12.18,16.24h0v.1C127.2,409.05,127.2,409.53,127.22,410Zm11.87,3.06c1.23-3.12,3.95-6.08,8.16-8.51,11.86-6.84,31-6.87,42.8-.07,4.13,2.39,6.81,5.29,8,8.37-1.23,3.11-4,6.08-8.17,8.51-11.85,6.84-31,6.87-42.79.08C143,419.07,140.31,416.16,139.09,413.08Z"/><path class="cls-109" d="M127.2,417.28c0,6.12,4,12.22,12,16.88,16.11,9.29,42.31,9.25,58.53-.11,7.81-4.52,11.88-10.37,12.19-16.27a57.8,57.8,0,0,0,0-8.63c-.09,6.07-4.17,12.12-12.2,16.75-16.22,9.36-42.42,9.41-58.53.11-7.67-4.42-11.67-10.17-12-16C127.22,411.42,127.22,413.8,127.2,417.28Z"/><path class="cls-110" d="M211.57,430a2.11,2.11,0,0,0-2,.24,6.5,6.5,0,0,0-2.92,5.08,2.09,2.09,0,0,0,.84,1.9,2,2,0,0,0,2.08-.19,6.47,6.47,0,0,0,2.92-5.08,2.11,2.11,0,0,0-.8-1.87h0Z"/><path class="cls-111" d="M203.07,425.08a2,2,0,0,0-2.07.2,6.49,6.49,0,0,0-2.92,5.08,2.11,2.11,0,0,0,.8,1.87c.47.31,8.58,5,8.62,5a2.09,2.09,0,0,1-.84-1.9,6.5,6.5,0,0,1,2.92-5.08,2.11,2.11,0,0,1,2-.24Z"/><path class="cls-112" d="M138.55,411.31a10.3,10.3,0,0,0,.54,1.77c1.23-3.12,3.95-6.08,8.16-8.51,11.86-6.84,31-6.87,42.8-.07,4.13,2.39,6.81,5.29,8,8.37a10.6,10.6,0,0,0,.53-1.75c1.11-5.15-1.74-10.52-8.56-14.45-11.78-6.8-30.94-6.77-42.8.08C140.35,400.72,137.45,406.14,138.55,411.31Z"/><path class="cls-113" d="M138.55,411.31a10.3,10.3,0,0,0,.54,1.77c1.23-3.12,3.95-6.08,8.16-8.51,11.86-6.84,31-6.87,42.8-.07,4.13,2.39,6.81,5.29,8,8.37a10.6,10.6,0,0,0,.53-1.75c-.79-3.71-3.64-7.3-8.56-10.14-11.78-6.8-30.94-6.76-42.8.08C142.25,403.94,139.36,407.57,138.55,411.31Z"/><path class="cls-114" d="M139.09,413.08c1.22,3.08,3.89,6,8,8.38,11.77,6.79,30.94,6.76,42.79-.08,4.22-2.43,6.94-5.4,8.17-8.51-1.22-3.08-3.9-6-8-8.37-11.78-6.8-30.94-6.77-42.8.07C143,407,140.32,410,139.09,413.08Z"/><path class="cls-115" d="M242.28,443.85a3.74,3.74,0,0,0-3.54.43,11.54,11.54,0,0,0-5.2,9,3.72,3.72,0,0,0,1.5,3.38,3.62,3.62,0,0,0,3.7-.34,11.53,11.53,0,0,0,5.2-9,3.78,3.78,0,0,0-1.42-3.33h0Z"/><path class="cls-116" d="M241.82,446.06a2.65,2.65,0,0,0-2.51.31,8.18,8.18,0,0,0-3.69,6.41,2.62,2.62,0,0,0,1.07,2.39,2.52,2.52,0,0,0,2.62-.24,8.15,8.15,0,0,0,3.69-6.41,2.69,2.69,0,0,0-1-2.36h0Z"/><path class="cls-117" d="M209.73,425.49a3.62,3.62,0,0,0-3.67.35,11.53,11.53,0,0,0-5.2,9,3.77,3.77,0,0,0,1.42,3.33c.85.55,32.68,18.45,32.76,18.49a3.72,3.72,0,0,1-1.5-3.38,11.54,11.54,0,0,1,5.2-9,3.74,3.74,0,0,1,3.54-.43Z"/><polygon class="cls-118" points="168.01 425.07 147.26 413.09 147.26 358.7 168.01 370.68 168.01 425.07"/><polygon class="cls-119" points="188.63 358.77 188.63 413.16 168.01 425.07 168.01 370.68 188.63 358.77"/><polygon class="cls-120" points="168.01 370.68 147.26 358.7 167.88 346.8 188.63 358.77 168.01 370.68"/><polygon class="cls-121" points="167.99 367.44 167.99 364.65 183.02 355.97 183.02 358.76 167.99 367.44"/><polygon class="cls-122" points="167.99 367.44 152.88 358.71 152.88 355.92 167.99 364.65 167.99 367.44"/><polygon class="cls-123" points="167.99 364.65 152.88 355.92 167.9 347.25 183.02 355.97 167.99 364.65"/><polygon class="cls-124" points="170.42 374.2 170.42 420.18 171.97 419.29 171.97 373.31 171.5 373.58 170.42 374.2"/><polygon class="cls-125" points="170.42 374.2 170.42 419.61 171.5 418.98 171.5 373.58 170.42 374.2"/><polygon class="cls-126" points="171.97 419.29 171.5 418.98 170.42 419.61 170.42 420.18 171.97 419.29"/><polygon class="cls-127" points="185.41 366.37 185.41 412.35 186.96 411.45 186.96 365.47 186.49 365.74 185.41 366.37"/><polygon class="cls-128" points="185.41 366.37 185.41 411.77 186.49 411.14 186.49 365.74 185.41 366.37"/><polygon class="cls-129" points="186.96 411.45 186.49 411.14 185.41 411.77 185.41 412.35 186.96 411.45"/><polygon class="cls-130" points="165.94 373.31 165.94 419.29 164.38 418.39 164.38 372.41 164.85 372.69 165.94 373.31"/><polygon class="cls-131" points="165.94 373.31 165.94 418.71 164.85 418.09 164.85 372.69 165.94 373.31"/><polygon class="cls-132" points="164.38 418.39 164.85 418.09 165.94 418.71 165.94 419.29 164.38 418.39"/><polygon class="cls-133" points="163.1 371.84 163.1 417.82 161.54 416.92 161.54 370.94 162.01 371.21 163.1 371.84"/><polygon class="cls-134" points="163.1 371.84 163.1 417.24 162.01 416.61 162.01 371.21 163.1 371.84"/><polygon class="cls-135" points="161.54 416.92 162.01 416.61 163.1 417.24 163.1 417.82 161.54 416.92"/><polygon class="cls-136" points="160.26 370.36 160.26 416.34 158.71 415.44 158.71 369.46 159.18 369.74 160.26 370.36"/><polygon class="cls-137" points="160.26 370.36 160.26 415.76 159.18 415.14 159.18 369.74 160.26 370.36"/><polygon class="cls-138" points="158.71 415.44 159.18 415.14 160.26 415.76 160.26 416.34 158.71 415.44"/><polygon class="cls-139" points="157.42 368.88 157.42 414.87 155.87 413.97 155.87 367.99 156.34 368.26 157.42 368.88"/><polygon class="cls-140" points="157.42 368.88 157.42 414.29 156.34 413.66 156.34 368.26 157.42 368.88"/><polygon class="cls-141" points="155.87 413.97 156.34 413.66 157.42 414.29 157.42 414.87 155.87 413.97"/><polygon class="cls-142" points="154.58 367.41 154.58 413.39 153.03 412.49 153.03 366.51 153.5 366.79 154.58 367.41"/><polygon class="cls-143" points="154.58 367.41 154.58 412.81 153.5 412.19 153.5 366.79 154.58 367.41"/><polygon class="cls-144" points="153.03 412.49 153.5 412.19 154.58 412.81 154.58 413.39 153.03 412.49"/><polygon class="cls-145" points="151.74 365.93 151.74 411.91 150.19 411.02 150.19 365.04 150.66 365.31 151.74 365.93"/><polygon class="cls-146" points="151.74 365.93 151.74 411.34 150.66 410.71 150.66 365.31 151.74 365.93"/><polygon class="cls-147" points="150.19 411.02 150.66 410.71 151.74 411.34 151.74 411.91 150.19 411.02"/><polygon class="cls-148" points="188.8 377.83 187.57 378.54 187.57 378.54 182.59 381.41 179.52 383.19 179.09 382.94 173.56 379.74 182.36 374.66 182.83 374.39 184.94 375.61 188.05 377.4 188.8 377.83"/><polygon class="cls-149" points="187.59 377.83 186.98 378.18 179.52 382.49 175.38 380.1 174.76 379.75 182.84 375.08 187.59 377.83"/><polygon class="cls-150" points="186.98 378.18 179.52 382.49 175.38 380.1 182.84 375.79 186.98 378.18"/><polygon class="cls-151" points="179.52 383.19 179.52 425.39 173.56 421.94 173.56 379.74 179.09 382.94 179.52 383.19"/><polygon class="cls-152" points="188.8 377.83 188.8 420.03 179.52 425.39 179.52 383.19 182.59 381.41 187.57 378.54 188.8 377.83"/><polygon class="cls-153" points="188.63 358.77 182.36 374.66 173.56 379.74 173.56 396.97 167.78 411.6 168.01 370.68 188.63 358.77"/><polygon class="cls-154" points="188.63 366.51 188.63 376.02 188.05 377.4 184.94 375.61 188.63 366.51"/><polygon class="cls-155" points="187.57 378.54 179.52 397.68 179.52 388.99 182.59 381.41 187.57 378.54"/><polygon class="cls-156" points="180.91 385.15 180.91 422.76 182.47 421.86 182.47 384.26 182 384.53 180.91 385.15"/><polygon class="cls-157" points="180.91 385.15 180.91 422.18 182 421.55 182 384.53 180.91 385.15"/><polygon class="cls-158" points="182.47 421.86 182 421.55 180.91 422.18 180.91 422.76 182.47 421.86"/><polygon class="cls-159" points="183.75 383.68 183.75 421.28 185.31 420.38 185.31 382.78 184.84 383.05 183.75 383.68"/><polygon class="cls-160" points="183.75 383.68 183.75 420.7 184.84 420.08 184.84 383.05 183.75 383.68"/><polygon class="cls-161" points="185.31 420.38 184.84 420.08 183.75 420.7 183.75 421.28 185.31 420.38"/><polygon class="cls-162" points="186.59 382.2 186.59 419.81 188.15 418.91 188.15 381.3 187.68 381.58 186.59 382.2"/><polygon class="cls-163" points="186.59 382.2 186.59 419.23 187.68 418.6 187.68 381.58 186.59 382.2"/><polygon class="cls-164" points="188.15 418.91 187.68 418.6 186.59 419.23 186.59 419.81 188.15 418.91"/><polygon class="cls-165" points="173.72 372.86 173.72 378.79 182.91 373.49 182.91 367.56 182.44 367.83 173.72 372.86"/><polygon class="cls-166" points="173.72 372.86 173.72 378.21 182.44 373.18 182.44 367.83 173.72 372.86"/><polygon class="cls-167" points="182.91 373.49 182.44 373.18 173.72 378.21 173.72 378.79 182.91 373.49"/><polygon class="cls-168" points="178.76 385.3 178.76 422.91 177.21 422.01 177.21 384.4 177.68 384.68 178.76 385.3"/><polygon class="cls-169" points="178.76 385.3 178.76 422.33 177.68 421.7 177.68 384.68 178.76 385.3"/><polygon class="cls-170" points="177.21 422.01 177.68 421.7 178.76 422.33 178.76 422.91 177.21 422.01"/><polygon class="cls-171" points="175.92 383.83 175.92 421.43 174.37 420.53 174.37 382.93 174.84 383.2 175.92 383.83"/><polygon class="cls-172" points="175.92 383.83 175.92 420.85 174.84 420.23 174.84 383.2 175.92 383.83"/><polygon class="cls-173" points="174.37 420.53 174.84 420.23 175.92 420.85 175.92 421.43 174.37 420.53"/><ellipse class="cls-174" cx="167.33" cy="354.98" rx="10.27" ry="5.93" transform="translate(-1.92 0.91) rotate(-0.31)"/><ellipse class="cls-175" cx="167.33" cy="354.98" rx="5.55" ry="3.21" transform="translate(-1.92 0.91) rotate(-0.31)"/><path class="cls-176" d="M176.57,336a17.52,17.52,0,0,0-3.7-1.92,6.36,6.36,0,0,0-5.26.9c-4.62,2.67-8.37,9.14-8.37,14.45,0,2.59.89,4.42,2.34,5.31a19.18,19.18,0,0,0,2.84,1.45Z"/><ellipse class="cls-177" cx="170.13" cy="345.89" rx="11.81" ry="6.82" transform="translate(-214.34 318.2) rotate(-59.69)"/><path class="cls-178" d="M176.87,342a14.87,14.87,0,0,1-6.73,11.62c-2.22,1.28-4.18,1.19-5.41,0a5.16,5.16,0,0,1-1.33-3.84,14.82,14.82,0,0,1,6.74-11.62c1.84-1.07,3.51-1.18,4.73-.5S176.87,339.85,176.87,342Z"/><path class="cls-179" d="M176.2,341.49a14.85,14.85,0,0,1-6.74,11.63c-1.84,1.06-3.52,1.18-4.73.5a5.16,5.16,0,0,1-1.33-3.84,14.82,14.82,0,0,1,6.74-11.62c1.84-1.07,3.51-1.18,4.73-.5A5.19,5.19,0,0,1,176.2,341.49Z"/><path class="cls-22" d="M170,350.81c-1.38.65-2.38.36-2.38-1.11l1.38-.8c0,.62.37.92,1,.69v-2.86c-1.13.32-2.38.68-2.38-1.15a5.18,5.18,0,0,1,2.38-4v-1.06l.74-.43v1.05c1.3-.62,2.18-.31,2.29,1.1l-1.39.8a.64.64,0,0,0-.9-.63v2.8c1.13-.34,2.37-.7,2.37,1.13a5.29,5.29,0,0,1-2.37,4v1.07l-.74.42Zm0-5.37v-2.63a2.42,2.42,0,0,0-1.06,1.93C168.93,345.49,169.38,345.57,170,345.44Zm.74,1.08v2.64a2.59,2.59,0,0,0,1.06-2C171.79,346.45,171.34,346.39,170.73,346.52Z"/><path class="cls-180" d="M685.15,499.63a4.83,4.83,0,0,1-2.72,3.32l-60.82,35.12c-3.31,1.91-8.31,2.11-11.18.46l-62.89-36.31a3.29,3.29,0,0,1-1.93-2.86c0-1.17,0-13.23,0-14.79a3.38,3.38,0,0,0,1.93,2.7l62.89,36.3c2.87,1.66,7.87,1.45,11.18-.46L682.43,488c1.68-1,2.6-2.18,2.73-3.37C685.18,487.2,685.28,498.59,685.15,499.63Z"/><path class="cls-181" d="M688.87,493.9c-.15,1.23-1.12,2.49-2.86,3.5l-64.07,37c-3.49,2-8.76,2.23-11.77.49l-66.25-38.25a3.49,3.49,0,0,1-2-3c0-1.24,0-42.57,0-44.21a3.56,3.56,0,0,0,2,2.84l66.25,38.24c3,1.75,8.28,1.53,11.77-.48L686,453c1.77-1,2.74-2.3,2.87-3.55C688.91,452.17,689,492.8,688.87,493.9Z"/><path class="cls-182" d="M688.88,449.46c-.13,1.25-1.1,2.53-2.87,3.55l-64.07,37c-3.49,2-8.76,2.23-11.77.48l-66.25-38.24a3.56,3.56,0,0,1-2-2.84v-.18c0-1.32,1-2.69,2.88-3.78l64.08-37c3.48-2,8.75-2.23,11.77-.49l66.25,38.25A3.38,3.38,0,0,1,688.88,449.46Z"/><path class="cls-183" d="M673.71,449.41a4,4,0,0,1-2.28,2.82l-.81.47-3.37,1.95-46.67,26.94c-2.77,1.6-7,1.77-9.34.38l-47.72-27.55-3.38-1.95-1.48-.85a2.79,2.79,0,0,1-1.61-2.25.33.33,0,0,1,0-.14c0-1.05.8-2.14,2.28-3l50.85-29.36c2.77-1.6,7-1.77,9.35-.38l52.57,30.35A2.68,2.68,0,0,1,673.71,449.41Z"/><path class="cls-184" d="M670.62,452.7l-3.37,1.95-46.67,26.94c-2.77,1.6-7,1.77-9.34.38l-47.72-27.55-3.38-1.95,50-28.89c2.77-1.6,7-1.77,9.35-.38Z"/><path class="cls-185" d="M569.06,495.41a2.29,2.29,0,0,1-1-1.8V476.48c0-3.78,2.68-5.3,6-3.4a13.18,13.18,0,0,1,6,10.3v1.73c0,.66-.46.93-1,.59a2.27,2.27,0,0,1-1-1.79v-1.73a8.6,8.6,0,0,0-3.89-6.71c-2.15-1.24-3.89-.24-3.89,2.22v17.12C570.1,495.48,569.63,495.74,569.06,495.41Z"/><path class="cls-186" d="M580.84,489.62l-13.7-7.91c-1.46-.84-2.65-.16-2.65,1.51v15a5.82,5.82,0,0,0,2.65,4.56l13.7,7.91c1.46.85,2.64.17,2.64-1.51v-15A5.84,5.84,0,0,0,580.84,489.62Zm-5.47,7.18v3.34c0,.8-.56,1.13-1.27.72a2.8,2.8,0,0,1-1.27-2.19v-3.33A5.64,5.64,0,0,1,571.5,492c0-1.11.53-1.77,1.33-1.82a2.36,2.36,0,0,1,1.27.35,4.64,4.64,0,0,1,1.27,1.13,5.56,5.56,0,0,1,1.32,3.34C576.69,496.08,576.16,496.74,575.37,496.8Z"/><path class="cls-187" d="M673.71,449.41a4,4,0,0,1-2.28,2.82l-.81.47-3.37,1.95-46.67,26.94c-2.77,1.6-7,1.77-9.34.38l-47.72-27.55-3.38-1.95-1.48-.85a2.79,2.79,0,0,1-1.61-2.25.33.33,0,0,1,0-.14c0-1.05-31.84-82.21-31.84-82.21h180S673.81,448.45,673.71,449.41Z"/><path class="cls-188" d="M647.91,450.49c-8.8,5.08-20.19,7.74-31.68,8-12.55.26-25.22-2.36-34.76-7.87-18.29-10.55-18.2-27.73.21-38.35,9.15-5.29,21.11-8,33.07-8s24.18,2.58,33.37,7.88C666.41,422.68,666.32,439.86,647.91,450.49Z"/><ellipse class="cls-189" cx="614.79" cy="431.37" rx="32.48" ry="18.75" transform="translate(-2.33 3.34) rotate(-0.31)"/><ellipse class="cls-190" cx="614.79" cy="431.37" rx="18.85" ry="10.88" transform="translate(-2.33 3.34) rotate(-0.31)"/><ellipse class="cls-191" cx="630.66" cy="447.52" rx="2.56" ry="4.43" transform="translate(179.72 1075.75) rotate(-89.69)"/><ellipse class="cls-191" cx="589.73" cy="433.28" rx="2.56" ry="4.43" transform="translate(153.25 1020.65) rotate(-89.69)"/><ellipse class="cls-191" cx="588.66" cy="448.42" rx="2.56" ry="4.43" transform="matrix(0.01, -1, 1, 0.01, 137.06, 1034.64)"/><ellipse class="cls-191" cx="637.12" cy="422.92" rx="2.56" ry="4.43" transform="translate(210.74 1057.74) rotate(-89.69)"/><path class="cls-192" d="M616.23,458.47c-12.55.26-25.22-2.36-34.76-7.87l32.78-19.23Z"/><path class="cls-193" d="M591.82,347.73a81.27,81.27,0,0,1,7.62-5.23c5-3.06,11.95-2.72,19.68,1.74,15.07,8.71,27.29,29.78,27.29,47.08,0,13.42-16.44,28.95-23.8,35.24-.9.76-5.57,5.47-6.86,4.72s.77-7-.13-8.76C608.26,407.74,591.82,347.73,591.82,347.73Z"/><path class="cls-194" d="M585,364.53c0-17.29,12.22-24.26,27.29-15.56s27.29,29.78,27.29,47.08c0,13.42-16.43,28.95-23.79,35.23-1.8,1.54-5.2-.43-7-4C601.4,412.46,585,378,585,364.53Z"/><ellipse class="cls-195" cx="612.25" cy="380.29" rx="11.11" ry="19.24" transform="translate(-108.23 360.98) rotate(-30.31)"/><path class="cls-196" d="M611.09,388.28c-2.75-1.88-4.74-4.75-4.74-7.68l2.75,1.59a5,5,0,0,0,2,3.66v-5.7c-2.26-1.94-4.74-4.1-4.74-7.75,0-2.89,1.94-3.76,4.74-2.44v-2.12l1.46.85v2.09a9.91,9.91,0,0,1,4.56,7.44l-2.75-1.58a5.28,5.28,0,0,0-1.81-3.35v5.59c2.26,1.92,4.71,4,4.71,7.69,0,2.5-1.67,4-4.71,2.53v2.12l-1.46-.85Zm0-10.69v-5.22c-1.24-.54-2.12-.19-2.12,1.39S609.87,376.45,611.09,377.59Zm1.46,3.85v5.25c1.35.52,2.12-.12,2.12-1.47S613.77,382.58,612.55,381.44Z"/><path class="cls-197" d="M261.94,259.51a4.89,4.89,0,0,1-2.72,3.32L198.4,298c-3.31,1.91-8.31,2.11-11.18.46L124.33,262.1a3.3,3.3,0,0,1-1.93-2.86c0-1.17,0-13.23,0-14.79a3.38,3.38,0,0,0,1.93,2.7l62.89,36.3c2.87,1.66,7.87,1.45,11.18-.46l60.82-35.12c1.68-1,2.6-2.19,2.73-3.37C262,247.08,262.07,258.47,261.94,259.51Z"/><path class="cls-198" d="M265.66,253.77c-.15,1.24-1.12,2.5-2.86,3.5l-64.07,37c-3.49,2-8.76,2.23-11.78.49l-66.24-38.25a3.51,3.51,0,0,1-2-3c0-1.23,0-42.56,0-44.2a3.51,3.51,0,0,0,2,2.83L187,250.37c3,1.75,8.29,1.53,11.78-.48l64.07-37c1.77-1,2.74-2.3,2.87-3.55C265.7,212.05,265.8,252.68,265.66,253.77Z"/><path class="cls-199" d="M265.67,209.34c-.13,1.25-1.1,2.53-2.87,3.55l-64.07,37c-3.49,2-8.76,2.23-11.78.48l-66.24-38.25a3.51,3.51,0,0,1-2-2.83v-.18c0-1.32,1-2.7,2.88-3.78l64.08-37c3.48-2,8.75-2.24,11.77-.49l66.25,38.25A3.38,3.38,0,0,1,265.67,209.34Z"/><path class="cls-200" d="M250.5,209.29a4,4,0,0,1-2.28,2.82l-.81.47L244,214.53l-46.67,26.94c-2.77,1.6-7,1.77-9.34.38L140.31,214.3l-3.38-2-1.48-.85a2.79,2.79,0,0,1-1.61-2.25.33.33,0,0,1,0-.14c0-1.05.8-2.14,2.28-3L187,176.75c2.77-1.6,6.95-1.77,9.35-.38l52.57,30.35A2.68,2.68,0,0,1,250.5,209.29Z"/><path class="cls-201" d="M247.41,212.58,244,214.53l-46.67,26.94c-2.77,1.6-7,1.77-9.34.38L140.31,214.3l-3.38-2,50-28.89c2.77-1.6,6.95-1.77,9.35-.38Z"/><path class="cls-202" d="M145.85,255.29a2.29,2.29,0,0,1-1-1.8V236.36c0-3.78,2.68-5.3,6-3.4a13.18,13.18,0,0,1,6,10.3V245c0,.66-.46.92-1,.59a2.27,2.27,0,0,1-1-1.79v-1.73a8.6,8.6,0,0,0-3.89-6.71c-2.15-1.24-3.89-.25-3.89,2.22v17.12C146.89,255.35,146.42,255.62,145.85,255.29Z"/><path class="cls-203" d="M157.62,249.5l-13.69-7.91c-1.46-.84-2.65-.16-2.65,1.51v15a5.82,5.82,0,0,0,2.65,4.57l13.69,7.91c1.47.85,2.65.17,2.65-1.51v-15A5.83,5.83,0,0,0,157.62,249.5Zm-5.46,7.18V260c0,.8-.56,1.13-1.27.72a2.8,2.8,0,0,1-1.27-2.19v-3.33a5.64,5.64,0,0,1-1.33-3.36c0-1.11.53-1.77,1.33-1.82a2.19,2.19,0,0,1,1.27.35,4.64,4.64,0,0,1,1.27,1.13,5.56,5.56,0,0,1,1.32,3.34C153.48,256,153,256.62,152.16,256.68Z"/><path class="cls-204" d="M250.5,209.29a4,4,0,0,1-2.28,2.82l-.81.47L244,214.53l-46.67,26.94c-2.77,1.6-7,1.77-9.34.38L140.31,214.3l-3.38-2-1.48-.85a2.79,2.79,0,0,1-1.61-2.25.33.33,0,0,1,0-.14c0-1.05-31.84-82.21-31.84-82.21H282S250.6,208.33,250.5,209.29Z"/><path class="cls-205" d="M213.61,220.92a1.61,1.61,0,0,0,.64-1.44V146.16a5.9,5.9,0,0,0-2.85-4.48L165,114.91a2.27,2.27,0,0,0-2-.32c.6-.38,1.8-1.1,2.18-1.27a2.28,2.28,0,0,1,2,.33l46.38,26.77a6,6,0,0,1,2.85,4.49v73.32a1.54,1.54,0,0,1-.84,1.53C215.09,220,213.61,220.92,213.61,220.92Z"/><path class="cls-206" d="M211.41,220.69,165,193.91a5.93,5.93,0,0,1-2.84-4.49V116.1a1.68,1.68,0,0,1,.47-1.29,0,0,0,0,1,0,0,2.34,2.34,0,0,1,.28-.18s0,0,0,0a2.27,2.27,0,0,1,2,.32l46.37,26.77a5.9,5.9,0,0,1,2.85,4.48v73.32a1.61,1.61,0,0,1-.64,1.44h0A2.14,2.14,0,0,1,211.41,220.69Z"/><polygon class="cls-207" points="208.72 146.32 208.72 212.94 167.73 189.27 167.73 122.65 208.72 146.32"/><polygon class="cls-208" points="192.57 158.23 171.79 146.23 171.79 140.76 192.57 152.75 192.57 158.23"/><polygon class="cls-209" points="200.76 162.95 196.05 160.23 196.05 154.76 200.76 157.48 200.76 162.95"/><polygon class="cls-208" points="188.08 163.7 171.79 154.29 171.79 148.82 188.08 158.22 188.08 163.7"/><polygon class="cls-209" points="200.76 171.02 196.05 168.3 196.05 162.82 200.76 165.54 200.76 171.02"/><polygon class="cls-208" points="192.57 174.35 171.79 162.36 171.79 156.88 192.57 168.88 192.57 174.35"/><polygon class="cls-209" points="200.76 179.08 196.05 176.36 196.05 170.89 200.76 173.61 200.76 179.08"/><polygon class="cls-208" points="188.08 179.82 171.79 170.42 171.79 164.95 188.08 174.35 188.08 179.82"/><polygon class="cls-209" points="200.76 187.14 196.05 184.43 196.05 178.95 200.76 181.67 200.76 187.14"/><polygon class="cls-208" points="185.96 186.66 171.79 178.48 171.79 173.01 185.96 181.19 185.96 186.66"/><polygon class="cls-209" points="200.76 195.21 196.05 192.49 196.05 187.02 200.76 189.74 200.76 195.21"/><polygon class="cls-208" points="192.57 198.54 171.79 186.55 171.79 181.07 192.57 193.07 192.57 198.54"/><polygon class="cls-209" points="200.76 203.27 196.05 200.55 196.05 195.08 200.76 197.8 200.76 203.27"/><polygon class="cls-208" points="198.3 161.03 196 157.03 197.1 156.38 198.3 158.47 201.94 156.34 203.04 158.25 198.3 161.03"/><polygon class="cls-208" points="198.3 169.09 196 165.09 197.1 164.44 198.3 166.53 201.94 164.4 203.04 166.31 198.3 169.09"/><polygon class="cls-208" points="198.3 177.15 196 173.15 197.1 172.5 198.3 174.59 201.94 172.46 203.04 174.37 198.3 177.15"/><polygon class="cls-208" points="198.3 185.21 196 181.21 197.1 180.56 198.3 182.65 201.94 180.52 203.04 182.43 198.3 185.21"/><polygon class="cls-208" points="198.3 193.26 196 189.27 197.1 188.62 198.3 190.71 201.94 188.58 203.04 190.49 198.3 193.26"/><polygon class="cls-208" points="198.3 201.32 196 197.33 197.1 196.68 198.3 198.77 201.94 196.64 203.04 198.55 198.3 201.32"/><polygon class="cls-208" points="201.31 152.36 171.91 135.38 171.91 127.64 201.31 144.62 201.31 152.36"/><path class="cls-210" d="M225.2,148.24c0,4.29-1.44,7.37-3.79,8.93a25.74,25.74,0,0,1-5.65,2.71l-19.8-35a51.74,51.74,0,0,1,5.65-2.74c2.5-1,5.75-.63,9.3,1.42C218.8,128.15,225.2,139.18,225.2,148.24Z"/><ellipse class="cls-211" cx="206.53" cy="142.04" rx="11.63" ry="20.14" transform="translate(-43.45 123.65) rotate(-30.31)"/><polygon class="cls-208" points="204.04 149.44 198.35 139.76 200.96 138.21 203.93 143.26 212.58 138.1 215.3 142.73 204.04 149.44"/></g></g></g></svg>